<?xml version="1.0" encoding="UTF-8" standalone="no"?>
<!-- Generator: Adobe Illustrator 18.0.0, SVG Export Plug-In . SVG Version: 6.00 Build 0)  -->

<svg
   version="1.1"
   x="0px"
   y="0px"
   width="36"
   height="144"
   viewBox="0 0 36 144"
   enable-background="new 0 0 36 108"
   xml:space="preserve"
   id="svg675"
   sodipodi:docname="Inkscape.svg"
   inkscape:version="1.4.2 (f4327f4, 2025-05-13)"
   xmlns:inkscape="http://www.inkscape.org/namespaces/inkscape"
   xmlns:sodipodi="http://sodipodi.sourceforge.net/DTD/sodipodi-0.dtd"
   xmlns="http://www.w3.org/2000/svg"
   xmlns:svg="http://www.w3.org/2000/svg"><defs
   id="defs679" /><sodipodi:namedview
   id="namedview677"
   pagecolor="#ffffff"
   bordercolor="#000000"
   borderopacity="0.25"
   inkscape:showpageshadow="2"
   inkscape:pageopacity="0.0"
   inkscape:pagecheckerboard="0"
   inkscape:deskcolor="#d1d1d1"
   showgrid="false"
   inkscape:zoom="5.6568543"
   inkscape:cx="98.464619"
   inkscape:cy="63.286057"
   inkscape:window-width="1920"
   inkscape:window-height="1017"
   inkscape:window-x="-8"
   inkscape:window-y="-8"
   inkscape:window-maximized="1"
   inkscape:current-layer="Friends_Status" />
<g
   id="label">
</g>
<g
   id="BC">
</g>
<g
   id="brand">
</g>
<g
   id="generic">
</g>
<g
   id="negative">
</g>
<g
   id="creation">
</g>
<g
   id="games">
</g>
<g
   id="Social_and_Interaction">
</g>
<g
   id="Navigation">
</g>
<g
   id="Friends_Status"
   inkscape:label="Friends_Status"
   transform="translate(0,0.313167)">
	<g
   id="Available">
		<circle
   fill="#00a2ff"
   cx="18"
   cy="90"
   r="16"
   id="circle641"
   style="fill:#800080;stroke:none" />
		<g
   id="g647">
			
				<circle
   fill="none"
   stroke="#ffffff"
   stroke-width="2"
   stroke-linecap="round"
   stroke-linejoin="round"
   stroke-miterlimit="10"
   cx="18"
   cy="84"
   r="5"
   id="circle643" />
			<path
   fill="none"
   stroke="#ffffff"
   stroke-width="2"
   stroke-linecap="round"
   stroke-linejoin="round"
   stroke-miterlimit="10"
   d="m 18,92 c 0,0 5,0 6,1 1,1 2,6 2,6 0,0 -3.1,2 -8,2 -4.9,0 -8,-2 -8,-2 0,0 1,-5 2,-6 1,-1 6,-1 6,-1 z"
   id="path645" />
		</g>
	</g>
	<g
   id="InStudio">
		<circle
   fill="#f68802"
   cx="18"
   cy="54"
   r="16"
   id="circle650"
   style="fill:#800080;stroke:none" />
		
			<polygon
   fill="none"
   stroke="#ffffff"
   stroke-width="2"
   stroke-linecap="round"
   stroke-linejoin="round"
   stroke-miterlimit="10"
   points="8,47 8,52 10,54 15,54 18,57 18,62 20,64 25,64 22,61 22,58 25,58 28,61 28,56 26,54 21,54 18,51 18,46 16,44 11,44 14,47 14,50 11,50 "
   id="polygon652" />
	</g>
	<g
   id="InGame">
		<circle
   fill="#02b757"
   cx="18"
   cy="18"
   r="16"
   id="circle655"
   style="fill:#800080;stroke:none" />
		<g
   id="g671">
			
				<polygon
   fill="none"
   stroke="#ffffff"
   stroke-width="2"
   stroke-linecap="round"
   stroke-linejoin="round"
   stroke-miterlimit="10"
   points="16,23 20,23 25,25 29,25 29,14 24.2,11 12,11 7,14 7,25 11,25 "
   id="polygon657" />
			
				<line
   fill="none"
   stroke="#ffffff"
   stroke-width="2"
   stroke-linecap="round"
   stroke-linejoin="round"
   stroke-miterlimit="10"
   x1="11"
   y1="18"
   x2="15"
   y2="18"
   id="line659" />
			
				<line
   fill="none"
   stroke="#ffffff"
   stroke-width="2"
   stroke-linecap="round"
   stroke-linejoin="round"
   stroke-miterlimit="10"
   x1="13"
   y1="16"
   x2="13"
   y2="20"
   id="line661" />
			<g
   id="g665">
				<path
   fill="#ffffff"
   d="m 22,15 c -0.8,0 -1.5,0.7 -1.5,1.5 0,0.8 0.7,1.5 1.5,1.5 0.8,0 1.5,-0.7 1.5,-1.5 C 23.5,15.7 22.8,15 22,15 Z"
   id="path663" />
			</g>
			<g
   id="g669">
				<path
   fill="#ffffff"
   d="m 25,18 c -0.8,0 -1.5,0.7 -1.5,1.5 0,0.8 0.7,1.5 1.5,1.5 0.8,0 1.5,-0.7 1.5,-1.5 C 26.5,18.7 25.8,18 25,18 Z"
   id="path667" />
			</g>
		</g>
	</g>
<g
   id="Available-7"
   transform="translate(0,36)"
   inkscape:label="Invisible">
		<circle
   fill="#00a2ff"
   cx="18"
   cy="90"
   r="16"
   id="circle641-6"
   style="fill:#000000;fill-opacity:1" />
		
	<ellipse
   cx="18"
   cy="126.31316"
   fill="#232527"
   stroke="#bdbebe"
   stroke-width="2.66667"
   id="circle435"
   rx="14.666667"
   ry="14.666666"
   transform="translate(0,-36.313167)" /><path
   style="fill:#800080;stroke:none"
   d="M 16.26094,34.181253 C 9.9722437,33.378448 4.8446443,29.234765 2.8959552,23.380826 2.2395404,21.40893 2.1344332,20.707553 2.1344332,18.299219 c 0,-1.875862 0.024503,-2.241915 0.2061718,-3.080066 C 3.7580853,8.6794444 8.7281757,3.8007497 15.173858,2.6218927 21.39398,1.4842885 27.713777,4.1855125 31.268139,9.5009511 c 1.962656,2.9350919 2.929389,6.6151259 2.626595,9.9985879 -0.207363,2.317114 -0.64619,3.887951 -1.651292,5.911011 -0.721003,1.451228 -1.477377,2.553147 -2.53708,3.696128 -2.551252,2.751746 -5.837803,4.476572 -9.52998,5.001459 -0.837195,0.119017 -3.208942,0.163307 -3.915442,0.07312 z m -2.556921,-8.815999 2.503415,-0.996492 h 1.790683 1.790683 l 2.511421,1.00088 2.511421,1.000879 2.313502,-0.02704 2.313501,-0.02703 0.296002,-0.296113 0.296002,-0.296113 0.02392,-5.77343 c 0.02222,-5.363965 0.01258,-5.795917 -0.135885,-6.090495 -0.132127,-0.262157 -0.591228,-0.587652 -2.651031,-1.879538 -1.370177,-0.859358 -2.63391,-1.605527 -2.808296,-1.658153 -0.213349,-0.06438 -2.361766,-0.08668 -6.56779,-0.06815 l -6.250723,0.02753 -2.7076338,1.640406 c -1.6444143,0.996262 -2.7547939,1.725497 -2.8277335,1.857099 -0.096168,0.173514 -0.1207393,1.383082 -0.1233098,6.070191 -0.00321,5.844735 -0.00292,5.853867 0.1904824,6.099739 0.1065309,0.135432 0.2797846,0.281025 0.3850083,0.32354 0.1052238,0.04252 1.1929335,0.07988 2.4171328,0.08304 l 2.2258166,0.0057 z"
   id="path1"
   transform="translate(0,-36.313167)" /><path
   style="fill:#800080;stroke-width:0.0905902"
   d="m 8.0625273,19.589045 v -4.689128 l 2.1538627,-1.289825 2.153863,-1.289826 h 5.726855 5.726855 l 2.080586,1.290911 2.080585,1.29091 0.0036,4.688043 0.0036,4.688042 H 26.608072 25.223773 L 22.738139,23.28168 20.252504,22.285188 H 18.008302 15.7641 l -2.492637,0.996492 -2.492636,0.996492 H 9.420677 8.0625273 Z m 5.3870097,1.661492 c 0.418975,-0.175059 0.591943,-0.546421 0.591943,-1.2709 v -0.593335 h 0.552498 c 0.952437,0 1.440486,-0.385205 1.440486,-1.136938 0,-0.255216 -0.07025,-0.400872 -0.308006,-0.63863 -0.296246,-0.296246 -0.334296,-0.308007 -0.996492,-0.308007 H 14.04148 v -0.688485 c 0,-0.662197 -0.01176,-0.700247 -0.308007,-0.996492 -0.260697,-0.260698 -0.371793,-0.308007 -0.723292,-0.308007 -0.33051,0 -0.475464,0.05377 -0.710081,0.2634 -0.279325,0.249576 -0.296543,0.301872 -0.328087,0.996492 l -0.03329,0.733092 H 11.25983 c -0.651288,0 -0.691418,0.01252 -0.9869,0.308007 -0.237758,0.237758 -0.3080066,0.383414 -0.3080066,0.63863 0,0.751733 0.4880496,1.136938 1.4404866,1.136938 h 0.552498 v 0.593335 c 0,0.712625 0.171701,1.092932 0.572051,1.267056 0.370784,0.161265 0.541115,0.161977 0.91958,0.0038 z m 12.145941,-0.04153 c 0.920751,-0.41824 1.215799,-1.451399 0.650825,-2.278975 -0.308363,-0.451691 -0.740338,-0.648064 -1.339924,-0.609121 -0.606393,0.03938 -1.006242,0.291629 -1.264389,0.79764 -0.41552,0.814487 -0.09171,1.690859 0.772067,2.089516 0.456045,0.210478 0.719663,0.210687 1.181421,9.4e-4 z m -3.199865,-2.913774 c 0.473471,-0.131496 0.846997,-0.47649 1.027432,-0.948952 0.188218,-0.492843 0.132911,-0.93575 -0.174941,-1.400947 -0.749506,-1.132579 -2.598028,-0.691027 -2.749957,0.656876 -0.08669,0.76908 0.303327,1.396043 1.029459,1.654902 0.429527,0.153122 0.450595,0.154047 0.868007,0.03812 z"
   id="path2"
   transform="translate(0,-36.313167)" /><path
   style="fill:#800080;stroke:none"
   d="M 19.815832,62.634505 19.088968,61.980753 V 59.55341 c 0,-1.83409 -0.04396,-2.511895 -0.179857,-2.773294 -0.09892,-0.190273 -0.900844,-1.052179 -1.782048,-1.915346 L 15.524872,53.295375 H 13.021064 10.517255 L 9.8066704,52.626499 9.0960856,51.957624 v -1.016107 -1.016106 l 0.7591725,0.724128 0.7591719,0.724128 h 1.860019 c 1.781521,0 1.875187,-0.01305 2.219475,-0.309193 l 0.359457,-0.309192 V 48.826534 46.897786 L 14.288708,46.12505 13.524035,45.352314 h 1.025277 1.025277 l 0.668222,0.676627 0.668221,0.676626 v 2.484264 2.484264 l 1.819906,1.835551 1.819905,1.835551 h 2.508314 2.508315 l 0.668222,0.676626 0.668221,0.676627 v 1.008355 1.008356 L 26.144743,57.991033 25.38557,57.266905 h -1.908887 c -1.886391,0 -1.912547,0.0039 -2.219475,0.330606 -0.299996,0.319331 -0.310588,0.395653 -0.310588,2.23794 v 1.907334 l 0.764673,0.772737 0.764672,0.772736 H 21.50933 20.542695 Z"
   id="path11"
   transform="translate(0,-36.313167)" /><path
   style="fill:#800080;stroke:none"
   d="M 15.193932,106.00058 C 8.8751518,104.85949 3.8908063,100.02279 2.4016104,93.587191 c -0.3641997,-1.5739 -0.38651,-4.756582 -0.044454,-6.341638 0.9161698,-4.245449 3.3213796,-7.833535 6.8029864,-10.148678 2.7666142,-1.839699 5.5018762,-2.66271 8.8494672,-2.66271 4.35476,0 8.186707,1.588793 11.267977,4.671902 2.209759,2.211076 3.677126,4.947375 4.364881,8.139486 0.322351,1.496148 0.320814,4.626852 -0.003,6.149467 -1.391573,6.54296 -6.458193,11.48372 -12.934371,12.61307 -1.407265,0.24541 -4.131147,0.24169 -5.511146,-0.008 z m 6.616672,-4.01894 c 1.964063,-0.41562 4.231864,-1.31707 4.933169,-1.96094 0.381861,-0.350589 0.368676,-0.732563 -0.08952,-2.593307 -0.840037,-3.411458 -1.492646,-4.767145 -2.552935,-5.303313 -2.226407,-1.125849 -9.978748,-1.124644 -12.206368,0.0019 -1.031441,0.521616 -1.65246,1.79047 -2.4922439,5.092112 -0.5173143,2.03384 -0.5386754,2.442533 -0.1464832,2.802608 0.9608461,0.88216 4.0590521,1.91927 6.7580071,2.26222 1.089186,0.1384 4.574715,-0.0428 5.796369,-0.30128 z M 19.893722,90.054092 c 2.817591,-0.941453 4.55446,-3.785864 4.07703,-6.676812 -0.586846,-3.553491 -4.03507,-5.806759 -7.503639,-4.903311 -3.012776,0.784728 -4.975527,3.81571 -4.433817,6.846931 0.396872,2.220762 1.997749,4.085426 4.078556,4.750607 1.048977,0.335331 2.749604,0.3275 3.78187,-0.01741 z"
   id="path12"
   transform="translate(0,-36.313167)" /><path
   style="fill:#800080;stroke:none;stroke-width:0.128114"
   d="m 16.685795,100.16969 c -0.65235,-0.0481 -1.632421,-0.186388 -2.177936,-0.307263 -1.286848,-0.28514 -3.108337,-0.944365 -3.188812,-1.15408 -0.09061,-0.236122 0.55943,-2.652726 1.007043,-3.743815 0.378598,-0.922859 0.385158,-0.929883 1.041689,-1.115404 2.094113,-0.591748 7.17033,-0.591748 9.264443,0 0.656372,0.185476 0.663189,0.192769 1.042567,1.115404 0.210032,0.51079 0.543098,1.555875 0.740149,2.322411 0.424786,1.652437 0.50401,1.521297 -1.275544,2.111386 -2.040314,0.676551 -4.21497,0.936481 -6.453599,0.771361 z"
   id="path13"
   transform="translate(0,-36.313167)" /><path
   style="fill:#800080;stroke:none;stroke-width:0.128114"
   d="M 16.975089,88.098944 C 16.104911,87.810687 15.685518,87.53724 15.079071,86.862724 14.323668,86.022535 14.039936,85.191235 14.121647,84.057598 14.273241,81.954426 15.912979,80.413897 18,80.413897 c 2.087021,0 3.72676,1.540529 3.878354,3.643701 0.08379,1.162545 -0.202165,1.974927 -1.004002,2.852264 -1.012384,1.107709 -2.64342,1.605095 -3.899263,1.189082 z"
   id="path14"
   transform="translate(0,-36.313167)" /><path
   style="fill:#800080;stroke:none;stroke-width:0.128114"
   d="M 15.193932,70.000576 C 8.8751518,68.859492 3.8908063,64.022793 2.4016104,57.58719 2.0374107,56.01329 2.0151004,52.830608 2.3571561,51.245553 3.2732463,47.000473 5.687068,43.408102 9.1888921,41.07822 11.923635,39.258703 14.674342,38.434164 18.00961,38.434164 c 3.327859,0 6.074506,0.822852 8.766191,2.626213 1.647155,1.103552 2.762343,2.147382 3.875657,3.62766 1.503059,1.998493 2.461464,4.099711 2.99101,6.557516 0.33809,1.569195 0.31772,4.624671 -0.04185,6.27758 -0.898783,4.131614 -3.333167,7.728173 -6.824816,10.082983 -1.588695,1.071435 -4.069448,2.052984 -6.070723,2.401977 -1.407265,0.245406 -4.131147,0.241691 -5.511146,-0.0075 z M 25.710605,65.05952 c 0.211882,-0.199054 0.296513,-0.421523 0.296513,-0.779448 0,-0.466158 -0.102162,-0.605251 -1.47331,-2.005934 L 23.060499,60.769093 V 60.04291 59.316727 h 0.730385 0.730383 l 1.555062,1.537367 c 1.588676,1.570598 1.780236,1.681543 2.408855,1.395125 0.537787,-0.245033 0.596667,-0.593729 0.596667,-3.533605 V 55.948621 L 27.776383,54.621998 26.470917,53.295375 H 23.967403 21.46389 l -1.187461,-1.182523 -1.187461,-1.182523 v -2.487296 -2.487295 l -1.305467,-1.326623 -1.305467,-1.326623 h -2.986348 c -2.815529,0 -3.001004,0.01466 -3.242575,0.256228 -0.16552,0.165519 -0.2562282,0.427046 -0.2562282,0.738744 0,0.444808 0.1151412,0.597331 1.4733092,1.951647 l 1.47331,1.46913 v 0.738745 0.738745 H 12.209596 11.47969 L 10.061361,47.796373 C 8.5779535,46.332807 8.1951552,46.113605 7.572851,46.371371 6.9741665,46.619355 6.9181496,46.92398 6.9181496,49.93171 v 2.773745 l 1.319871,1.31987 1.3198708,1.319872 h 2.4891096 2.48911 l 1.187461,1.182523 1.18746,1.182523 v 2.487295 2.487295 l 1.305468,1.326624 1.305466,1.326623 h 2.946064 c 2.848466,0 2.955884,-0.0092 3.242575,-0.27856 z"
   id="path15"
   transform="translate(0,-36.313167)" /><path
   style="fill:#800080;stroke:none;stroke-width:0.00800712"
   d="m 19.498734,65.310429 c -0.01463,-0.01667 -0.602851,-0.615763 -1.307152,-1.331329 l -1.28055,-1.30103 v -1.140191 -1.140191 h 0.04404 0.04404 v 1.007848 c 0,1.094433 -0.0011,1.064509 0.04463,1.211493 0.02969,0.09541 0.09175,0.216607 0.15115,0.295161 0.03359,0.04443 0.417845,0.433792 1.114793,1.129626 1.137244,1.135425 1.101563,1.102015 1.255703,1.1758 0.03523,0.01686 0.09407,0.04009 0.130749,0.05161 0.151549,0.0476 -0.01,0.0447 2.574704,0.04633 1.304083,8.24e-4 2.282781,0.004 2.174885,0.007 -0.107896,0.003 -1.259124,0.0083 -2.558284,0.01184 l -2.362109,0.0064 z"
   id="path16"
   transform="translate(0,-36.313167)" /><path
   style="fill:#800080;stroke:none;stroke-width:0.00800712"
   d="m 17.175267,70.174127 c -0.964689,-0.03573 -1.59462,-0.09923 -2.225978,-0.224388 -1.725387,-0.342023 -3.374288,-0.962419 -4.866326,-1.830945 L 9.9528472,68.043052 V 64.22037 60.397688 h 3.5231318 3.523132 v 0.992034 c 0,0.618734 0.0031,1.022065 0.0082,1.07184 0.01343,0.130874 0.07708,0.296219 0.162446,0.421974 0.06722,0.09902 1.982409,2.019076 2.215486,2.221111 0.132793,0.115108 0.310459,0.187781 0.49308,0.201693 0.05887,0.0045 0.791871,0.01043 1.70087,0.0138 l 1.59742,0.0059 -1.273132,0.0043 c -1.014663,0.0034 -0.873237,0.0041 0.696619,0.0031 1.346506,-8.31e-4 2.024222,-0.0041 2.141904,-0.0103 0.647191,-0.03415 0.783586,-0.07305 0.994107,-0.283574 0.133809,-0.13381 0.20689,-0.268547 0.248535,-0.458216 0.0205,-0.09337 0.02948,-0.393104 0.01479,-0.493578 -0.04336,-0.296565 -0.222546,-0.536654 -1.006077,-1.348049 -0.110574,-0.114507 -0.590684,-0.606349 -1.066911,-1.092981 l -0.865867,-0.884787 -3.6e-5,-0.182162 -3.7e-5,-0.182162 h 1.275292 1.275291 l 0.07591,0.07681 c 0.14904,0.150797 0.895958,0.88281 1.054918,1.033866 0.485812,0.461655 0.765637,0.68532 0.990742,0.7919 0.182123,0.08623 0.353372,0.09748 0.546181,0.03589 0.107292,-0.03428 0.277008,-0.112426 0.361781,-0.16659 0.20372,-0.130165 0.311112,-0.368801 0.368579,-0.819023 0.02765,-0.216616 0.05664,-0.657819 0.05664,-0.861939 v -0.09091 h 1.809609 c 0.995284,0 1.809608,0.0022 1.809608,0.005 0,0.0083 -0.13823,0.325165 -0.216166,0.495454 -0.09463,0.206762 -0.328303,0.677937 -0.432843,0.872776 -0.968131,1.804379 -2.234453,3.378861 -3.786934,4.708483 -0.509066,0.435991 -1.1028,0.881611 -1.633452,1.22597 -1.564788,1.015447 -3.921478,1.938197 -5.833185,2.283953 -0.483774,0.0875 -0.996882,0.138012 -1.805605,0.17776 -0.222645,0.01094 -1.555693,0.01616 -1.801602,0.0071 z m 2.241365,-4.954152 c -0.06382,-0.06496 -0.524855,-0.534275 -1.024519,-1.042927 -1.32204,-1.345822 -1.476762,-1.502064 -1.480006,-1.49455 -0.0029,0.0067 0.04194,0.05313 0.523515,0.541703 0.136735,0.138723 0.46479,0.472019 0.729011,0.740658 1.15946,1.178845 1.351929,1.373221 1.359747,1.373221 0.0046,0 -0.04393,-0.05315 -0.107748,-0.118105 z"
   id="path17"
   transform="translate(0,-36.313167)" /><path
   style="fill:#800080;stroke:none;stroke-width:0.00400356"
   d="m 16.910782,59.051492 -2.5e-4,-1.346197 -0.714294,-0.710632 -0.714294,-0.710631 0.03477,-0.0012 0.03477,-0.0012 0.723815,0.723807 0.723816,0.723807 v 1.33419 1.33419 h -0.04404 -0.04404 z"
   id="path18"
   transform="translate(0,-36.313167)" /><path
   style="fill:#800080;stroke:none;stroke-width:0.00390625"
   d="M 15.008123,55.812294 14.53773,55.34375 H 12.04911 9.5604894 l -0.098791,-0.09885 -0.098791,-0.09885 0.00116,-0.02824 0.00116,-0.02824 0.039063,0.02881 c 0.1556663,0.114804 0.3344021,0.180099 0.53125,0.194072 0.035288,0.0025 0.8694556,0.0039 2.3515686,0.0039 l 2.296881,3.4e-5 0.48241,0.482422 0.48241,0.482422 -0.03515,-2.06e-4 -0.03515,-2.05e-4 z"
   id="path19"
   transform="translate(0,-36.313167)" /><path
   style="fill:#800080;stroke:none;stroke-width:0.00390625"
   d="m 9.3632813,56.963896 v -1.809541 l 0.096708,0.09665 0.096708,0.09665 2.4902057,2.39e-4 2.490205,2.38e-4 1.186524,1.182156 1.186523,1.182155 v 0.530497 0.530496 H 13.136719 9.3632813 Z"
   id="path20"
   transform="translate(0,-36.313167)" /><path
   style="fill:#800080;stroke:none;stroke-width:0.00390625"
   d="m 9.3632813,56.963896 v -1.809541 l 0.096708,0.09665 0.096708,0.09665 h 2.4897187 2.489719 l 0.805174,0.802137 c 0.442846,0.441176 0.977001,0.973117 1.18701,1.182093 l 0.381836,0.379956 v 0.530798 0.530797 H 13.136719 9.3632813 Z"
   id="path21"
   transform="translate(0,-36.313167)" /><path
   style="fill:#800080;stroke:none;stroke-width:0.00390625"
   d="m 9.3632813,56.963896 v -1.809541 l 0.096708,0.09665 0.096708,0.09665 h 2.4899757 2.489976 l 0.367417,0.366271 c 0.20208,0.201449 0.736119,0.733475 1.186753,1.18228 l 0.819336,0.816009 v 0.530611 0.53061 H 13.136719 9.3632813 Z"
   id="path22"
   transform="translate(0,-36.313167)" /><path
   style="fill:#800080;stroke:none;stroke-width:0.00390625"
   d="m 9.3632813,56.963896 v -1.809541 l 0.096708,0.09665 0.096708,0.09665 2.4902057,4.3e-5 2.490205,4.2e-5 0.324219,0.323363 c 0.17832,0.17785 0.712256,0.709861 1.186524,1.182248 l 0.862304,0.858883 v 0.530601 0.530601 H 13.136719 9.3632813 Z"
   id="path23"
   transform="translate(0,-36.313167)" /><path
   style="fill:#800080;stroke:none;stroke-width:0.00390625"
   d="m 9.3632813,56.963896 v -1.809541 l 0.096708,0.09665 0.096708,0.09665 2.4902057,2.4e-5 2.490205,2.4e-5 0.289063,0.288274 c 0.158984,0.15855 0.69292,0.690551 1.186523,1.182223 l 0.897461,0.893951 v 0.530643 0.530642 H 13.136719 9.3632813 Z"
   id="path24"
   transform="translate(0,-36.313167)" /><path
   style="fill:#800080;stroke:none;stroke-width:0.00390625"
   d="m 9.3632813,56.963896 v -1.809541 l 0.096708,0.09665 0.096708,0.09665 2.4902057,1.7e-5 2.490205,1.7e-5 0.263672,0.262904 c 0.14502,0.144598 0.678955,0.676591 1.186524,1.182209 l 0.922851,0.919304 v 0.530665 0.530665 H 13.136719 9.3632813 Z"
   id="path25"
   transform="translate(0,-36.313167)" /><path
   style="fill:#800080;stroke:none;stroke-width:0.00390625"
   d="m 9.3632813,56.963896 v -1.809541 l 0.096708,0.09665 0.096708,0.09665 2.4902057,4.5e-5 2.490205,4.5e-5 0.242188,0.241292 c 0.133203,0.13271 0.667139,0.664678 1.186523,1.182151 l 0.944336,0.940859 v 0.530695 0.530694 H 13.136719 9.3632813 Z"
   id="path26"
   transform="translate(0,-36.313167)" /><path
   style="fill:#800080;stroke:none;stroke-width:0.00390625"
   d="m 9.3632813,56.963896 v -1.809541 l 0.096708,0.09665 0.096708,0.09665 h 2.4903377 2.490338 l 1.186391,1.181915 1.186391,1.181915 v 0.530976 0.530975 H 13.136719 9.3632813 Z"
   id="path27"
   transform="translate(0,-36.313167)" /><path
   style="fill:#800080;stroke:none;stroke-width:0.00390625"
   d="m 9.3632813,56.963896 v -1.809541 l 0.096708,0.09665 0.096708,0.09665 H 12.046848 14.537 l 0.185601,0.184776 c 0.102081,0.101627 0.636041,0.633591 1.186578,1.182143 l 1.000976,0.997366 v 0.530748 0.530748 H 13.136719 9.3632813 Z"
   id="path28"
   transform="translate(0,-36.313167)" /><path
   style="fill:#800080;stroke:none;stroke-width:0.00390625"
   d="m 9.3632813,56.963896 v -1.809541 l 0.096708,0.09665 0.096708,0.09665 2.4902057,1.3e-5 2.490205,1.3e-5 0.164063,0.163064 c 0.253682,0.252139 1.136387,1.13169 1.700195,1.694121 l 0.508789,0.507546 v 0.530512 0.530512 H 13.136719 9.3632813 Z"
   id="path29"
   transform="translate(0,-36.313167)" /><path
   style="fill:#800080;stroke:none;stroke-width:0.00390625"
   d="m 9.3632813,56.963896 v -1.809541 l 0.096708,0.09665 0.096708,0.09665 2.4902057,2.8e-5 2.490205,2.8e-5 0.148438,0.14728 c 0.175008,0.173643 0.953341,0.949205 1.696289,1.690252 l 0.52832,0.526968 v 0.530613 0.530612 H 13.136719 9.3632813 Z"
   id="path30"
   transform="translate(0,-36.313167)" /><path
   style="fill:#800080;stroke:none;stroke-width:0.00390625"
   d="m 15.505326,56.277617 -0.02788,-0.0022 -0.468722,-0.465821 -0.468722,-0.46582 H 12.0522 9.5643968 l -0.099837,-0.100586 -0.099836,-0.100586 0.00155,-0.02394 0.00155,-0.02394 0.041669,0.02982 c 0.1345968,0.09632 0.2715292,0.152528 0.4413358,0.181166 l 0.049552,0.0084 2.3398914,0.0012 2.339891,0.0012 0.482368,0.482381 c 0.265303,0.265309 0.479735,0.482063 0.476516,0.481676 -0.0032,-3.87e-4 -0.0184,-0.0017 -0.03373,-0.0029 z"
   id="path31"
   transform="translate(0,-36.313167)" /><path
   style="fill:#800080;stroke:none;stroke-width:0.00390625"
   d="m 9.3632813,57.095703 v -1.677734 h 2.6191407 c 1.440527,0 2.619141,-0.0015 2.619141,-0.0033 0,-0.0018 -0.0035,-0.0065 -0.0078,-0.01037 -0.0043,-0.0039 -0.0078,-0.0091 -0.0078,-0.01147 0,-0.0024 -0.01016,-0.01445 -0.02257,-0.02674 l -0.02257,-0.02234 h -2.48823 -2.4881962 l -0.1001116,-0.100586 -0.1001116,-0.100586 0.00195,-0.02403 0.00195,-0.02402 0.043351,0.03103 c 0.1351573,0.09675 0.2733433,0.152323 0.4526276,0.182019 0.037527,0.0062 0.1983128,0.0068 2.3784488,0.0087 l 2.3382,0.0021 0.189887,0.187355 c 0.104437,0.103046 0.320796,0.319396 0.480797,0.48078 l 0.290911,0.293425 -0.03189,-0.0017 -0.03189,-0.0017 -0.20126,-0.200784 c -0.110693,-0.11043 -0.202978,-0.200774 -0.205078,-0.200764 -0.0021,1.1e-5 0.161416,0.164829 0.363369,0.366264 0.201953,0.201434 0.616357,0.614736 0.920898,0.918449 l 0.553711,0.552204 v 0.530751 0.53075 H 13.136719 9.3632813 Z m 5.3281247,-1.601562 c -0.04384,-0.04388 -0.0806,-0.07891 -0.08167,-0.07784 -0.0011,0.0011 0.03392,0.03786 0.07776,0.08174 0.04384,0.04388 0.0806,0.07891 0.08167,0.07784 0.0011,-0.0011 -0.03392,-0.03786 -0.07776,-0.08174 z"
   id="path32"
   transform="translate(0,-36.313167)" /><path
   style="fill:#800080;stroke:none;stroke-width:0.00390625"
   d="m 9.3632813,56.963896 v -1.809541 l 0.096708,0.09665 0.096708,0.09665 h 2.4901137 2.490114 l 0.02916,0.02832 c 0.03243,0.0315 0.03033,0.02515 -0.0032,-0.0098 L 14.54126,55.34375 H 12.052828 9.5643968 l -0.1001116,-0.100586 -0.1001116,-0.100586 0.00198,-0.02441 0.00198,-0.02441 0.016133,0.01216 c 0.1310901,0.09882 0.2745142,0.162526 0.4357355,0.193543 0.048848,0.0094 0.064818,0.01045 0.2014909,0.01322 0.08164,0.0017 1.140726,0.0032 2.353522,0.0034 l 2.205084,3.52e-4 0.482085,0.482097 0.482084,0.482097 -0.03287,-0.0022 c -0.01808,-0.0012 -0.03323,-0.0024 -0.03366,-0.0026 -4.32e-4,-2.48e-4 -0.08041,-0.07956 -0.177733,-0.176245 -0.09732,-0.09669 -0.188376,-0.186294 -0.20234,-0.199126 -0.03046,-0.02799 0.431033,0.433644 1.227538,1.227914 l 0.584961,0.58332 v 0.530866 0.530866 H 13.136719 9.3632813 Z m 5.4062497,-1.390864 c 0,-6.53e-4 -0.0066,-0.0072 -0.01465,-0.01465 l -0.01465,-0.01346 0.01346,0.01465 c 0.01253,0.01364 0.01584,0.01644 0.01584,0.01346 z"
   id="path33"
   transform="translate(0,-36.313167)" /><path
   style="fill:#800080;stroke:none;stroke-width:0.00390625"
   d="m 9.3632813,56.963896 v -1.809541 l 0.096708,0.09665 0.096708,0.09665 h 2.4903277 2.490328 l 0.02309,0.02334 c 0.0127,0.01283 0.02397,0.02246 0.02504,0.02138 0.0011,-0.0011 -0.0084,-0.01245 -0.02114,-0.02529 L 14.54126,55.34375 H 12.052828 9.5643968 l -0.1003612,-0.100586 -0.1003611,-0.100586 0.00229,-0.02436 0.00229,-0.02436 0.016064,0.01214 c 0.039315,0.02971 0.1138927,0.07615 0.1596778,0.09944 0.103762,0.05278 0.2136829,0.08678 0.3349021,0.103585 0.025069,0.0035 0.6050196,0.005 2.3674326,0.0062 l 2.334229,0.0016 0.482177,0.4823 0.482177,0.4823 -0.0332,-0.0025 -0.0332,-0.0025 -0.152344,-0.150963 c -0.08379,-0.08303 -0.169922,-0.16762 -0.191406,-0.187979 -0.04871,-0.04616 0.338176,0.340844 1.149414,1.149761 l 0.625976,0.624186 v 0.530978 0.530978 H 13.136719 9.3632813 Z m 5.4062497,-1.390864 c 0,-6.53e-4 -0.0066,-0.0072 -0.01465,-0.01465 l -0.01465,-0.01346 0.01346,0.01465 c 0.01253,0.01364 0.01584,0.01644 0.01584,0.01346 z"
   id="path34"
   transform="translate(0,-36.313167)" /><path
   style="fill:#800080;stroke:none;stroke-width:0.0441942"
   d="M 16.926369,70.15071 C 16.239321,70.113152 15.484841,70.03313 15.070213,69.953842 9.5436492,68.897009 4.977641,64.967213 3.0245041,59.586542 2.3555196,57.743565 2.1500141,56.486993 2.1514717,54.248348 c 0.0012,-1.846392 0.1014262,-2.657425 0.5051732,-4.087961 0.4723155,-1.673485 1.1589631,-3.161957 2.1406585,-4.640388 0.6414814,-0.96607 1.1175531,-1.544512 1.9840831,-2.410727 1.1946657,-1.19423 2.2696187,-1.99682 3.8042385,-2.840349 2.454257,-1.349024 5.441592,-1.975749 8.484161,-1.779926 3.00044,0.193111 5.311273,0.990087 7.844466,2.705453 1.596933,1.081373 2.824782,2.272088 3.948879,3.829452 1.494533,2.070579 2.577602,4.703888 2.884205,7.012481 0.15074,1.135002 0.12387,3.571086 -0.05291,4.797324 -0.231335,1.604633 -0.960772,3.68214 -1.833996,5.223402 -0.128183,0.226246 -0.229841,0.455117 -0.225906,0.508602 0.0039,0.05349 -0.01581,0.111438 -0.04387,0.128784 -0.0353,0.02182 -0.0411,0.0055 -0.0188,-0.05305 0.04965,-0.130324 -0.02154,-0.03848 -0.328367,0.423644 -1.204939,1.814802 -2.75933,3.375316 -4.531826,4.549677 -1.680609,1.113481 -4.29561,2.120649 -6.24975,2.407091 -0.844216,0.123747 -2.515038,0.184642 -3.535533,0.128856 z m 8.464969,-4.891656 c 0.365201,-0.115697 0.586872,-0.422718 0.627328,-0.868866 0.04717,-0.5202 -0.06384,-0.674183 -1.704057,-2.363665 l -1.244258,-1.281631 -4.96e-4,-0.696058 -4.96e-4,-0.696059 h 0.722783 0.722783 l 1.100227,1.074805 c 1.638527,1.600669 1.899324,1.824152 2.252036,1.929827 0.205382,0.06153 0.421422,0.01738 0.70019,-0.143115 0.410407,-0.236278 0.463149,-0.464447 0.513327,-2.220701 0.02153,-0.753511 0.04007,-1.973448 0.0412,-2.710972 l 0.0021,-1.340952 -1.33348,-1.343844 -1.333481,-1.343844 H 23.956328 21.455657 L 20.27377,52.071484 19.091883,50.888988 V 48.398104 45.907219 L 17.777106,44.581986 16.46233,43.256753 13.656,43.280824 c -1.725735,0.0148 -2.891417,0.04224 -3.027301,0.07125 -0.422553,0.09022 -0.606667,0.343942 -0.6339122,0.873585 -0.026674,0.518542 -1.538e-4,0.554777 1.5477282,2.114644 l 1.362184,1.372732 v 0.73754 0.737541 l -0.696059,-0.0022 -0.696058,-0.0022 L 10.54031,48.22943 C 8.9453277,46.663966 8.5148397,46.322346 8.0850695,46.28105 7.5983507,46.234282 7.1684903,46.494442 7.048074,46.908659 6.9344716,47.299438 6.8969277,48.181684 6.8955802,50.49214 l -0.00129,2.210004 1.2374369,1.236845 c 0.6805902,0.680265 1.2374368,1.221658 1.2374368,1.203097 0,-0.01856 0.084521,0.0114 0.1878253,0.06659 l 0.1878252,0.100334 2.4342856,0.01246 2.434286,0.01246 1.178588,1.210209 1.178588,1.210209 -0.0095,1.318492 c -0.009,1.24958 -0.01085,1.27576 -0.03466,0.5009 l -0.02512,-0.817592 -0.0095,0.828641 c -0.0061,0.529321 0.0064,0.828641 0.03466,0.828641 0.02811,0 0.04458,0.357939 0.04525,0.98332 9.76e-4,0.910606 0.02015,1.14744 0.111831,1.381068 0.03463,0.08825 0.03452,0.08826 -0.07225,5.4e-4 -0.05881,-0.04832 0.378839,0.409094 0.972559,1.016466 1.086243,1.111224 1.542191,1.570383 1.461255,1.471547 -0.08238,-0.100601 -0.04378,-0.117393 0.09986,-0.04344 0.189549,0.09759 1.244782,0.130534 3.745457,0.116914 1.577499,-0.0086 1.913921,-0.02153 2.101008,-0.0808 z"
   id="path44"
   transform="translate(0,-36.313167)" /><path
   style="fill:#800080;stroke:none"
   d="M 16.572815,70.131492 C 14.718112,70.019911 12.906078,69.516116 11.026446,68.589449 6.8225405,66.516903 3.7242279,62.649402 2.5220739,57.973778 2.1479463,56.518656 2.0325174,54.246652 2.2327319,52.278616 2.404862,50.586638 3.1011521,48.463652 4.0507972,46.735339 5.564561,43.980354 7.7274573,41.841912 10.599025,40.261148 c 1.673466,-0.921224 3.638087,-1.51683 5.708625,-1.730658 0.711972,-0.07353 2.691389,-0.0735 3.402951,4.8e-5 2.805242,0.289951 5.013164,1.133943 7.508485,2.870164 3.183638,2.215147 5.556815,5.85775 6.383615,9.798248 0.167523,0.798412 0.209659,1.255182 0.236454,2.563262 0.03627,1.770593 -0.06755,2.970679 -0.360058,4.161934 -0.293635,1.195859 -0.679034,2.255712 -1.218562,3.351076 -0.466651,0.947404 -0.573436,1.134309 -1.060722,1.856575 -1.282762,1.901341 -3.082014,3.650182 -4.872231,4.735722 -1.644448,0.997149 -4.166359,1.922258 -5.88244,2.157848 -1.029246,0.141299 -2.580842,0.183822 -3.872327,0.106125 z m 8.74956,-4.858501 c 0.393242,-0.09415 0.636713,-0.392609 0.68986,-0.845663 0.03755,-0.320132 -0.03523,-0.555781 -0.266162,-0.861766 -0.106849,-0.141574 -0.75267,-0.834142 -1.435157,-1.539039 l -1.240885,-1.281631 -3.36e-4,-0.696058 -3.36e-4,-0.696059 h 0.725368 0.725368 l 1.16433,1.138 c 2.032217,1.986259 2.182811,2.080188 2.818376,1.757878 0.531927,-0.269752 0.559811,-0.449518 0.604296,-3.895848 l 0.03088,-2.392087 -1.339493,-1.353369 -1.339493,-1.35337 H 23.957323 21.455657 L 20.27377,52.071484 19.091883,50.888988 V 48.401876 45.914764 L 17.777106,44.584557 16.46233,43.254351 13.656,43.281517 c -1.583602,0.01533 -2.899183,0.04645 -3.019441,0.07142 -0.457858,0.09509 -0.626579,0.345408 -0.626579,0.92962 0,0.355502 0.0081,0.387503 0.151662,0.596621 0.08341,0.121534 0.734726,0.808922 1.44736,1.527528 l 1.295697,1.306558 v 0.737423 0.737423 H 12.215844 11.526989 L 10.437028,48.132454 C 8.7643773,46.512438 8.5075225,46.313433 8.0461552,46.280061 c -0.4233099,-0.03062 -0.8374526,0.202182 -0.9671545,0.543666 -0.1268422,0.333956 -0.148317,0.748887 -0.169258,3.270369 l -0.021655,2.607456 1.2405384,1.237141 c 0.6822962,0.680428 1.2405384,1.221954 1.2405384,1.203393 0,-0.01856 0.084521,0.0114 0.1878253,0.06659 l 0.1878252,0.100334 2.434609,0.0128 2.434609,0.01279 1.178264,1.209878 1.178266,1.209878 -0.0095,1.318492 c -0.0088,1.226683 -0.01125,1.2631 -0.03469,0.522997 l -0.0252,-0.795495 -0.0095,0.806544 c -0.0061,0.514566 0.0065,0.806544 0.0347,0.806544 0.02807,0 0.04459,0.35059 0.04527,0.961223 6.13e-4,0.545224 0.02212,1.047292 0.04971,1.160097 0.02674,0.10938 0.05237,0.233294 0.05695,0.275363 0.0088,0.08092 2.322944,2.443781 2.322944,2.371849 0,-0.02311 0.06463,-0.0067 0.143631,0.03645 0.120393,0.06578 0.304515,0.08297 1.138,0.106269 1.404959,0.03927 4.398901,0.0059 4.639502,-0.05169 z"
   id="path45"
   transform="translate(0,-36.313167)" /><path
   style="fill:#800080;stroke:none;stroke-width:0.0441942"
   d=""
   id="path46"
   transform="translate(0,-36.313167)" /><path
   style="fill:#00ff00;stroke:none;stroke-width:0.0441942"
   d=""
   id="path47"
   transform="translate(0,-36.313167)" /><path
   style="fill:#800080;stroke:none;stroke-width:0.0110485"
   d="M 17.589281,70.301126 C 15.840489,70.258336 14.074477,69.917242 12.429611,69.304569 10.091707,68.433756 7.9942265,67.034854 6.3046349,65.219552 5.9191201,64.805354 5.6260288,64.45875 5.2810552,64.009088 l -0.132434,-0.172623 v -0.0837 c 0,-0.04603 0.00188,-0.08162 0.00418,-0.07909 0.0023,0.0025 0.065254,0.08664 0.1399028,0.186904 0.8132571,1.092332 1.8235082,2.132058 2.8997938,2.984398 1.9533142,1.546883 4.2588092,2.614908 6.6964882,3.102162 0.924512,0.184796 1.884495,0.254236 3.330065,0.240881 1.347481,-0.01245 2.132108,-0.08522 3.016253,-0.279739 1.3187,-0.290126 2.754239,-0.800481 4.038242,-1.435651 0.610201,-0.301854 1.117831,-0.595868 1.604531,-0.929329 1.630488,-1.117123 3.042965,-2.519435 4.174033,-4.143999 l 0.109616,-0.157441 h 0.05316 0.05316 l -0.05753,0.08563 c -0.10024,0.149198 -0.328455,0.465845 -0.471806,0.654626 -1.302066,1.714717 -2.930044,3.143696 -4.802261,4.215251 -1.272904,0.72854 -2.649859,1.281411 -4.071389,1.634731 -1.407856,0.349922 -2.81868,0.504681 -4.275786,0.469029 z"
   id="path48"
   transform="translate(0,-36.313167)" /><path
   style="fill:#800080;stroke:none;stroke-width:0.0110485"
   d="M 17.528514,70.29449 C 14.882782,70.206323 12.37651,69.502646 10.098369,68.208354 8.8106411,67.476751 7.6684576,66.598738 6.6179994,65.532943 6.1111022,65.018645 5.7528114,64.607533 5.2833571,64.001542 5.1642274,63.847764 5.1487112,63.82281 5.1493978,63.786095 c 0.00182,-0.09725 0.00823,-0.0927 0.1701407,0.120706 0.9208635,1.213748 2.003821,2.298188 3.1712671,3.175608 1.023446,0.769193 2.1177564,1.40184 3.3035144,1.90984 1.321039,0.565957 2.817623,0.973902 4.071388,1.109796 0.64163,0.06955 0.995045,0.08384 2.071602,0.08376 1.271684,-8.5e-5 1.840172,-0.03 2.541165,-0.133732 1.671199,-0.247295 3.826524,-1.007735 5.484863,-1.935163 0.617216,-0.345179 1.245095,-0.773732 1.89004,-1.290031 1.217312,-0.974496 2.272827,-2.099228 3.17517,-3.383384 l 0.141685,-0.201636 h 0.04344 c 0.05392,0 0.06352,-0.01884 -0.129643,0.254537 -1.068208,1.511803 -2.312947,2.765787 -3.805173,3.833436 -0.964878,0.690345 -2.081104,1.307089 -3.20159,1.76896 -1.935678,0.7979 -4.066814,1.214685 -6.139954,1.200787 -0.176224,-0.0012 -0.360182,-0.0035 -0.408796,-0.0051 z"
   id="path49"
   transform="translate(0,-36.313167)" /><path
   style="fill:#800080;stroke:none;stroke-width:0.0110485"
   d="M 17.52299,70.295362 C 16.834798,70.268197 16.329776,70.223482 15.719577,70.135689 12.896012,69.729444 10.230262,68.571988 7.9991455,66.783516 7.5265699,66.404698 7.1902186,66.101872 6.7166112,65.628818 6.2056008,65.118404 5.9131066,64.793325 5.5083498,64.28595 5.1608828,63.85039 5.1485071,63.833147 5.1493978,63.785827 c 0.00181,-0.09617 0.00896,-0.09157 0.153611,0.09884 0.7824844,1.029992 1.6267016,1.918248 2.5765682,2.710973 0.8039482,0.670947 1.6710861,1.258859 2.594442,1.759009 1.698562,0.920052 3.657069,1.554232 5.397214,1.747659 0.565547,0.06286 0.944904,0.07946 1.900349,0.08312 l 0.839689,0.0032 -0.767873,-0.0082 c -1.023485,-0.01095 -1.58914,-0.04203 -2.226282,-0.122319 -0.735314,-0.09266 -1.804122,-0.349384 -2.657175,-0.638253 -3.0538506,-1.03413 -5.676322,-2.937099 -7.6372555,-5.5419 L 5.1486212,63.646738 V 63.4443 63.241863 h 6.1521348 6.152134 l 0.74697,0.759587 c 0.410834,0.417773 0.832739,0.844109 0.937568,0.947413 l 0.190599,0.187825 -0.167745,-0.176777 c -0.09226,-0.09723 -0.508027,-0.52232 -0.923927,-0.94465 -0.415901,-0.422331 -0.751069,-0.769682 -0.74482,-0.771891 0.0062,-0.0022 0.429788,0.41322 0.941199,0.923176 0.511411,0.509956 0.960633,0.949949 0.998271,0.977761 0.100155,0.07401 0.214165,0.117734 0.355357,0.136285 0.232563,0.03056 0.612133,0.03831 2.00689,0.041 l 1.414214,0.0027 -0.939127,0.0065 c -0.703308,0.0049 -0.572914,0.0057 0.519282,0.0034 2.140218,-0.0046 2.498752,-0.02094 2.717388,-0.124143 0.22791,-0.107577 0.408564,-0.339232 0.476252,-0.610705 0.02805,-0.112518 0.03451,-0.435387 0.01103,-0.551634 -0.04015,-0.198808 -0.170651,-0.407198 -0.451057,-0.720285 l -0.07669,-0.08563 h 2.841399 2.841399 l -0.02133,0.03038 c -0.238331,0.33941 -0.320309,0.45302 -0.464392,0.643578 -1.022292,1.352037 -2.258746,2.545332 -3.644402,3.517192 -0.766704,0.537744 -1.609823,0.997149 -2.644133,1.440754 -1.328096,0.569606 -2.800185,1.007841 -3.922233,1.167633 -0.371285,0.05288 -0.867833,0.09545 -1.358971,0.116518 -0.431035,0.01849 -0.447974,0.02035 -0.143631,0.01577 1.099107,-0.01655 2.068576,-0.1677 3.253796,-0.507285 1.437337,-0.411821 2.958757,-1.059904 4.093485,-1.74371 1.267769,-0.763979 2.583816,-1.880868 3.647317,-3.095364 0.375656,-0.428992 0.759268,-0.918764 1.096859,-1.400403 l 0.129715,-0.185063 h 0.04472 0.04472 l -0.01936,0.03038 c -0.104028,0.163234 -0.461458,0.652856 -0.668247,0.915389 -1.325604,1.682948 -2.949505,3.066311 -4.82263,4.108286 -0.474414,0.263905 -1.194021,0.608978 -1.703835,0.817039 -1.11543,0.455219 -2.289055,0.785788 -3.47387,0.978466 -0.588892,0.09577 -1.100016,0.151078 -1.744208,0.188746 -0.193389,0.01131 -1.126617,0.02218 -1.303728,0.01519 z"
   id="path50"
   transform="translate(0,-36.313167)" /><path
   style="fill:#800080;stroke:none;stroke-width:0.00390625"
   d="m 17.645036,70.300811 c -1.635604,-0.03811 -3.23801,-0.321182 -4.781755,-0.844712 l -0.130859,-0.04438 -0.0011,-0.02813 c -6.31e-4,-0.01547 -5.01e-4,-0.02813 2.89e-4,-0.02813 7.9e-4,0 0.05404,0.01825 0.118335,0.04056 0.82801,0.287309 1.788881,0.528917 2.564165,0.64475 0.5542,0.0828 1.23893,0.135503 1.824218,0.140403 0.194687,0.0016 0.189808,8.83e-4 -0.03516,-0.0054 -0.419932,-0.01171 -0.895256,-0.04102 -1.269531,-0.07829 -0.394869,-0.03933 -0.646725,-0.07744 -1.054688,-0.159595 -0.712512,-0.143491 -1.414214,-0.336033 -2.1123,-0.579599 l -0.03613,-0.01261 -4e-6,-0.838867 -4e-6,-0.838867 h 5.642589 5.642589 l -9.88e-4,0.680065 -9.87e-4,0.680066 -0.0625,0.02513 c -0.480639,0.193293 -1.0754,0.401215 -1.574219,0.550329 -0.74638,0.223119 -1.461053,0.38336 -2.037109,0.456751 -0.397047,0.05058 -0.876306,0.08816 -1.373047,0.107667 -0.05801,0.0023 -0.116895,0.0046 -0.13086,0.0052 -0.01396,5.92e-4 0.0036,0.0014 0.03906,0.0018 0.187652,0.0022 0.723912,-0.02821 1.058594,-0.06001 0.716668,-0.06808 1.415864,-0.20668 2.257812,-0.447546 0.584044,-0.167085 1.288074,-0.409812 1.819336,-0.627249 0.0037,-0.0015 0.0049,0.0086 0.0049,0.04329 v 0.04529 l -0.01465,0.0063 c -0.0081,0.0035 -0.0726,0.02911 -0.143429,0.057 -1.635552,0.644151 -3.367825,1.014776 -5.117314,1.094862 -0.318661,0.01459 -0.801754,0.0207 -1.095198,0.01387 z m -0.09328,-0.115898 c -0.0027,-0.0011 -0.0071,-0.0011 -0.0098,0 -0.0027,0.0011 -4.88e-4,0.002 0.0049,0.002 0.0054,0 0.0076,-8.86e-4 0.0049,-0.002 z m 0.01953,0 c -0.0027,-0.0011 -0.0071,-0.0011 -0.0098,0 -0.0027,0.0011 -4.88e-4,0.002 0.0049,0.002 0.0054,0 0.0076,-8.86e-4 0.0049,-0.002 z"
   id="path51"
   transform="translate(0,-36.313167)" /><path
   style="fill:#800080;stroke:none;stroke-width:0.00390625"
   d="m 17.642578,70.300781 c -1.610446,-0.03731 -3.183446,-0.31182 -4.710937,-0.822117 l -0.199219,-0.06655 -0.0011,-0.02832 c -6.31e-4,-0.01558 -5.21e-4,-0.02832 2.44e-4,-0.02832 0.0015,0 0.01408,0.0043 0.170826,0.05834 0.861124,0.296918 1.871641,0.542326 2.677734,0.650298 0.429736,0.05756 1.02112,0.10461 1.365992,0.108675 0.106272,0.0013 0.105809,-0.0026 -7.58e-4,-0.0064 -0.293988,-0.01028 -0.720094,-0.0396 -1.031249,-0.07095 -0.390279,-0.03933 -0.640451,-0.07762 -1.054688,-0.161419 -0.538019,-0.108842 -1.06692,-0.245253 -1.609375,-0.415081 -0.0897,-0.02808 -0.413195,-0.135551 -0.489255,-0.162535 l -0.03027,-0.01074 -3e-6,-0.838867 -2e-6,-0.838867 h 5.642589 5.642589 l -9.88e-4,0.680173 -9.87e-4,0.680172 -0.126953,0.05052 c -1.097287,0.43661 -2.312921,0.7866 -3.273438,0.942446 -0.393344,0.06382 -0.932978,0.114114 -1.511719,0.14089 -0.277822,0.01285 -0.28397,0.01329 -0.162072,0.01142 0.244306,-0.0037 0.645226,-0.02675 0.951135,-0.05458 0.674573,-0.06136 1.316415,-0.182206 2.097656,-0.394947 0.64749,-0.176318 1.411674,-0.434707 2.022589,-0.683885 0.0039,-0.0016 0.0048,0.0078 0.0039,0.04426 l -0.0011,0.0463 -0.126953,0.05006 c -0.72909,0.287463 -1.457645,0.516851 -2.197266,0.691813 -0.979766,0.23177 -1.9555,0.368854 -2.949219,0.414343 -0.319476,0.01462 -0.801413,0.0207 -1.097656,0.01384 z m -0.408952,-0.119239 c -0.0031,-0.0031 -0.03015,-0.0035 -0.03312,-5.35e-4 -0.0014,0.0014 0.0059,0.0026 0.01629,0.0026 0.01038,0 0.01796,-9.23e-4 0.01683,-0.0021 z m 0.115007,-8.49e-4 c -0.01558,-7.41e-4 -0.04106,-7.41e-4 -0.05664,0 -0.01558,7.42e-4 -0.0028,0.0013 0.02832,0.0013 0.03115,0 0.0439,-6.06e-4 0.02832,-0.0013 z m -0.21447,-0.0059 c -9.96e-4,-0.0016 -0.02236,-0.0027 -0.04748,-0.0025 -0.02512,2.54e-4 -0.0404,0.0016 -0.03395,0.0029 0.01647,0.0035 0.08362,0.0031 0.08143,-4.62e-4 z"
   id="path52"
   transform="translate(0,-36.313167)" /><path
   style="fill:#800080;stroke:none;stroke-width:0.00390625"
   d="m 17.636719,70.300788 c -1.203883,-0.02904 -2.368938,-0.186962 -3.53125,-0.478659 -0.412872,-0.103615 -0.75617,-0.204 -1.167969,-0.341529 l -0.205078,-0.06849 -0.0011,-0.02832 c -6.31e-4,-0.01558 -4.32e-4,-0.02832 4.41e-4,-0.02832 8.74e-4,0 0.06203,0.0208 0.135914,0.04623 0.840255,0.289213 1.759069,0.519599 2.548387,0.638987 0.29044,0.04393 0.662459,0.08371 0.994981,0.106378 0.08951,0.0061 0.110556,0.006 0.104027,-5.34e-4 -0.001,-10e-4 -0.04045,-0.0046 -0.08757,-0.0079 -0.537025,-0.03733 -0.933174,-0.084 -1.312225,-0.154581 -0.765683,-0.142578 -1.523491,-0.341952 -2.252929,-0.59273 L 12.730512,69.346 v -0.839036 -0.839035 h 5.642589 5.642589 l -9.88e-4,0.680523 -9.87e-4,0.680524 -0.08203,0.03261 C 22.854357,69.489882 21.75363,69.8153 20.7852,69.99181 c -0.48406,0.08823 -1.056984,0.143927 -1.814453,0.176402 -0.05801,0.0025 -0.106201,0.0052 -0.107096,0.006 -0.0061,0.0057 0.315864,-0.0066 0.579752,-0.02216 0.520292,-0.03061 0.965746,-0.08286 1.414487,-0.165913 0.5003,-0.0926 1.068051,-0.234709 1.648013,-0.4125 0.107599,-0.03298 0.111741,-0.0343 0.3125,-0.09932 0.362654,-0.117451 0.852941,-0.295976 1.192511,-0.43422 0.0039,-0.0016 0.0048,0.0078 0.0039,0.04406 l -0.0011,0.04609 -0.03711,0.01507 c -0.02041,0.0083 -0.08376,0.03334 -0.14079,0.05568 -1.632196,0.639338 -3.354845,1.006475 -5.095538,1.08598 -0.315884,0.01443 -0.816683,0.02067 -1.103515,0.01375 z m -0.408203,-0.121101 c -0.0109,-0.0047 -0.02243,-0.0047 -0.01953,0 0.0013,0.0021 0.008,0.0038 0.01488,0.0036 0.01051,-2.31e-4 0.01124,-8.02e-4 0.0047,-0.0036 z m 0.108398,0.001 c -0.0091,-8.23e-4 -0.02407,-8.23e-4 -0.0332,0 -0.0091,8.22e-4 -0.0017,0.0015 0.0166,0.0015 0.01826,0 0.02573,-6.73e-4 0.0166,-0.0015 z m -0.206055,-0.005 c -0.0014,-0.0022 -0.01983,-0.0039 -0.04222,-0.0038 -0.02715,4.1e-5 -0.03794,0.0013 -0.03395,0.0038 0.008,0.0051 0.07935,0.0051 0.07617,0 z m -0.10957,-0.0033 c -0.002,-0.0018 -0.05557,-0.0054 -0.118945,-0.008 -0.06338,-0.0025 -0.162696,-0.0073 -0.220703,-0.01051 -0.06118,-0.0034 -0.116131,-0.0046 -0.13086,-0.0029 l -0.02539,0.003 0.03906,0.0027 c 0.0366,0.0026 0.26922,0.01396 0.333984,0.01636 0.07241,0.0027 0.126269,0.0024 0.122852,-6.97e-4 z"
   id="path53"
   transform="translate(0,-36.313167)" /><path
   style="fill:#800080;stroke:none;stroke-width:0.00390625"
   d="m 17.626953,70.300763 c -1.209949,-0.02995 -2.382299,-0.190448 -3.550781,-0.4861 -0.402796,-0.101916 -0.733853,-0.19898 -1.132522,-0.332049 l -0.211228,-0.0705 -0.0012,-0.02881 c -0.0011,-0.02636 -5.61e-4,-0.02858 0.0059,-0.0261 0.03453,0.01331 0.486474,0.162469 0.579282,0.191178 0.677352,0.209532 1.404007,0.382271 2.014348,0.478849 0.310203,0.04909 0.655529,0.08843 0.993465,0.1132 0.05908,0.0043 0.119287,0.0089 0.133789,0.01013 0.02034,0.0017 0.02637,0.0011 0.02637,-0.0029 0,-0.004 -0.02936,-0.0072 -0.12793,-0.01418 -0.515747,-0.03644 -0.906997,-0.08516 -1.321289,-0.164539 -0.74447,-0.142644 -1.463407,-0.33386 -2.178711,-0.579471 l -0.125976,-0.04326 v -0.839132 -0.839132 h 5.642578 5.642578 v 0.679826 0.679826 l -0.0166,0.0071 c -0.04171,0.01784 -0.299671,0.117977 -0.426757,0.165663 -1.144567,0.429474 -2.318213,0.742039 -3.228516,0.859818 -0.370305,0.04791 -0.824122,0.08418 -1.324219,0.105814 -0.07842,0.0034 -0.145215,0.0068 -0.148437,0.0075 -0.02018,0.0046 0.176136,-0.0012 0.386718,-0.01152 0.895803,-0.04382 1.549238,-0.139415 2.390625,-0.349753 0.740637,-0.185152 1.540642,-0.444363 2.266041,-0.734226 0.05364,-0.02143 0.0984,-0.03897 0.09946,-0.03897 0.0011,0 0.0014,0.02059 8.3e-4,0.04576 l -0.0011,0.04576 -0.109375,0.04351 c -0.473272,0.188272 -0.973811,0.359767 -1.457913,0.499512 -1.124378,0.324573 -2.265511,0.524258 -3.415134,0.597611 -0.185405,0.01183 -0.329799,0.01874 -0.539063,0.02581 -0.159187,0.0054 -0.704094,0.0077 -0.865234,0.0037 z m -0.400391,-0.121076 c -0.0032,-0.0021 -0.0094,-0.0038 -0.01367,-0.0038 -0.0065,0 -0.0068,6.51e-4 -0.002,0.0038 0.0032,0.0021 0.0094,0.0038 0.01367,0.0038 0.0065,0 0.0068,-6.51e-4 0.002,-0.0038 z m 0.10254,0.0011 c -0.0048,-9.31e-4 -0.01274,-9.31e-4 -0.01758,0 -0.0048,9.31e-4 -8.78e-4,0.0017 0.0088,0.0017 0.0097,0 0.01362,-7.62e-4 0.0088,-0.0017 z m -0.202149,-0.0051 c -0.0013,-0.0022 -0.01828,-0.0038 -0.03832,-0.0036 -0.02369,1.81e-4 -0.03325,0.0014 -0.02809,0.0036 0.01128,0.0048 0.0694,0.0048 0.06641,0 z m -0.113281,-0.0039 c -0.0087,-0.0037 -0.179999,-0.01165 -0.300781,-0.01395 -0.11975,-0.0023 -0.07064,0.0044 0.07127,0.0097 0.06822,0.0026 0.130194,0.0051 0.137714,0.0057 0.03449,0.0027 0.09908,0.0016 0.0918,-0.0015 z m -0.395454,-0.01451 c -0.0048,-9.28e-4 -0.01359,-9.52e-4 -0.01953,-5.4e-5 -0.0059,8.98e-4 -0.002,0.0017 0.0087,0.0017 0.01074,2.9e-5 0.0156,-7.05e-4 0.0108,-0.0016 z m -0.0724,-0.0035 c -0.0013,-0.0013 -0.0047,-0.0014 -0.0075,-3.08e-4 -0.0031,0.0012 -0.0022,0.0022 0.0024,0.0024 0.0041,1.69e-4 0.0064,-7.54e-4 0.0051,-0.0021 z m -0.03312,-0.0043 c -0.0048,-9.31e-4 -0.01274,-9.31e-4 -0.01758,0 -0.0048,9.31e-4 -8.79e-4,0.0017 0.0088,0.0017 0.0097,0 0.01362,-7.62e-4 0.0088,-0.0017 z"
   id="path54"
   transform="translate(0,-36.313167)" /><path
   style="fill:#800080;stroke:none;stroke-width:0.00390625"
   d="m 17.697266,70.30235 c -0.993415,-0.02239 -1.892582,-0.120618 -2.837891,-0.310027 -0.670054,-0.134258 -1.271732,-0.294585 -1.927734,-0.513678 l -0.199219,-0.06654 -0.0011,-0.02832 c -6.31e-4,-0.01558 -5.26e-4,-0.02832 2.35e-4,-0.02832 7.6e-4,0 0.06895,0.02296 0.151538,0.05102 0.686401,0.23324 1.325874,0.405621 2.019297,0.544336 0.433657,0.08675 0.911905,0.150838 1.40039,0.187661 0.0709,0.0053 0.140772,0.01075 0.155274,0.01202 0.01675,0.0015 0.02637,8.6e-4 0.02637,-0.0017 0,-0.0055 -0.013,-0.0071 -0.113281,-0.01421 -0.535117,-0.03773 -0.91589,-0.08516 -1.347656,-0.167868 -0.718098,-0.137555 -1.431978,-0.326709 -2.123047,-0.562535 -0.08594,-0.02933 -0.159327,-0.05426 -0.163086,-0.0554 -0.0065,-0.002 -0.0068,-0.04545 -0.0068,-0.841472 v -0.839388 h 5.642589 5.642589 l -9.88e-4,0.680423 -9.87e-4,0.680424 -0.06641,0.02674 c -0.10218,0.04115 -0.366136,0.142306 -0.492188,0.188619 -0.902579,0.331617 -1.817692,0.589785 -2.616258,0.738088 -0.511997,0.09508 -1.07725,0.151598 -1.860304,0.185993 -0.05586,0.0025 -0.102442,0.0053 -0.103516,0.0064 -0.0011,0.0011 0.03232,7.99e-4 0.07422,-5.82e-4 1.040106,-0.03428 1.744004,-0.12692 2.64319,-0.347861 0.747395,-0.183645 1.58726,-0.45451 2.330479,-0.751605 0.0489,-0.01955 0.08982,-0.03554 0.09094,-0.03554 0.0011,0 0.0015,0.02055 9.4e-4,0.04567 l -0.0011,0.04567 -0.07617,0.03065 c -0.724217,0.291448 -1.530597,0.545135 -2.304688,0.725054 -1.048257,0.243642 -2.048662,0.3746 -3.138671,0.410867 -0.118779,0.004 -0.68923,0.0078 -0.796875,0.0054 z m -0.47461,-0.122663 c -0.0077,-0.0049 -0.01282,-0.0049 -0.0098,0 0.0013,0.0021 0.0054,0.0039 0.009,0.0038 0.0057,-5.2e-5 0.0058,-5.83e-4 7.46e-4,-0.0038 z m -0.09961,-0.0039 c -0.0013,-0.0021 -0.01681,-0.0038 -0.03441,-0.0036 -0.02151,1.84e-4 -0.02943,0.0014 -0.02418,0.0036 0.01126,0.0048 0.06159,0.0048 0.05859,0 z m -0.115235,-0.0039 c -0.0032,-0.0021 -0.0085,-0.0038 -0.01172,-0.0038 -0.0052,0 -0.0052,4.21e-4 0,0.0038 0.0032,0.0021 0.0085,0.0038 0.01172,0.0038 0.0052,0 0.0052,-4.21e-4 0,-0.0038 z m -0.07422,-0.0039 c -0.01471,-0.0047 -0.0908,-0.0047 -0.08789,0 0.0014,0.0023 0.02206,0.0037 0.05004,0.0035 0.0299,-2.45e-4 0.04399,-0.0016 0.03786,-0.0035 z m -0.174805,-0.0026 c -0.0027,-0.0011 -0.0071,-0.0011 -0.0098,0 -0.0027,0.0011 -4.88e-4,0.002 0.0049,0.002 0.0054,0 0.0076,-8.87e-4 0.0049,-0.002 z m -0.03901,-0.0041 c -0.0048,-9.27e-4 -0.01359,-9.51e-4 -0.01953,-5.4e-5 -0.0059,8.98e-4 -0.002,0.0017 0.0087,0.0017 0.01074,3e-5 0.0156,-7.05e-4 0.0108,-0.0016 z m -0.103569,-0.0038 c -0.0038,-9.83e-4 -0.0099,-9.83e-4 -0.01367,0 -0.0038,9.82e-4 -6.84e-4,0.0018 0.0068,0.0018 0.0075,0 0.0106,-8.04e-4 0.0068,-0.0018 z m 0.04687,0 c -0.0038,-9.83e-4 -0.0099,-9.83e-4 -0.01367,0 -0.0038,9.82e-4 -6.84e-4,0.0018 0.0068,0.0018 0.0075,0 0.0106,-8.04e-4 0.0068,-0.0018 z m -0.117269,-0.0036 c -0.0013,-0.0013 -0.0047,-0.0014 -0.0075,-3.08e-4 -0.0031,0.0012 -0.0022,0.0022 0.0024,0.0024 0.0041,1.69e-4 0.0064,-7.54e-4 0.0051,-0.0021 z m -0.03507,-0.0042 c -0.0038,-9.82e-4 -0.0099,-9.82e-4 -0.01367,0 -0.0038,9.83e-4 -6.83e-4,0.0018 0.0068,0.0018 0.0075,0 0.0106,-8.03e-4 0.0068,-0.0018 z"
   id="path55"
   transform="translate(0,-36.313167)" /><path
   style="fill:#800080;stroke:none;stroke-width:0.00552427"
   d="m 27.923956,62.358089 c -0.02651,-0.0056 -0.06504,-0.01565 -0.08563,-0.02236 -0.03963,-0.01291 -0.146653,-0.06096 -0.143283,-0.06433 0.0011,-0.0011 0.02543,0.0042 0.05409,0.01187 0.10832,0.02883 0.26023,0.03867 0.377696,0.02446 0.06207,-0.0075 0.179645,-0.03722 0.236147,-0.05968 0.256104,-0.101806 0.452779,-0.292825 0.560072,-0.543965 0.02717,-0.06361 0.03044,-0.06008 0.01024,0.01107 -0.06455,0.227338 -0.162231,0.367211 -0.325175,0.465634 -0.09017,0.05447 -0.27055,0.132788 -0.368032,0.159802 -0.108058,0.02994 -0.226075,0.03647 -0.316121,0.01749 z"
   id="path59"
   transform="translate(0,-36.313167)" /><path
   style="fill:#800080;stroke:none;stroke-width:0.00552427"
   d="m 27.925194,62.355202 c -0.07298,-0.01644 -0.193154,-0.06003 -0.185793,-0.06739 0.0013,-0.0013 0.02928,0.0031 0.06227,0.0097 0.07589,0.01522 0.258883,0.02119 0.334179,0.0109 0.06054,-0.0083 0.178245,-0.03834 0.229304,-0.05858 0.210193,-0.08331 0.385039,-0.232367 0.500545,-0.426723 0.01682,-0.0283 0.03866,-0.06999 0.04854,-0.09265 0.0099,-0.02266 0.01901,-0.04016 0.02028,-0.03889 0.0041,0.0041 -0.02647,0.09743 -0.05093,0.155819 -0.05763,0.137544 -0.141636,0.241629 -0.254303,0.315069 -0.09612,0.06265 -0.295557,0.15006 -0.41131,0.180263 -0.05639,0.01471 -0.07439,0.0168 -0.160204,0.01855 -0.071,0.0014 -0.106211,-1.73e-4 -0.132582,-0.0061 z"
   id="path60"
   transform="translate(0,-36.313167)" /><path
   style="fill:#800080;stroke:none;stroke-width:0.00552427"
   d="m 25.903648,64.809375 c 0.04794,-0.09322 0.07923,-0.200794 0.0944,-0.324551 0.01127,-0.09195 0.0097,-0.354438 -0.0025,-0.419845 -0.05157,-0.275961 -0.230425,-0.516855 -0.914628,-1.231912 -0.172826,-0.18062 -1.609746,-1.651686 -1.902106,-1.947306 l -0.11473,-0.11601 -1.06e-4,-0.725061 -1.06e-4,-0.72506 h 0.727842 0.727841 l 0.367346,0.363033 c 0.20204,0.199668 0.586239,0.579393 0.853776,0.843832 0.893556,0.883212 1.150681,1.12982 1.420365,1.362267 0.184425,0.15896 0.343458,0.279586 0.465879,0.353367 0.236417,0.142486 0.428572,0.167242 0.669709,0.08628 0.11526,-0.0387 0.266532,-0.109694 0.346286,-0.162524 0.253898,-0.168183 0.35266,-0.468708 0.40072,-1.21936 0.03129,-0.48877 0.04139,-1.121561 0.04158,-2.606075 l 1.17e-4,-0.921173 h 2.267196 c 2.156373,0 2.267091,4.73e-4 2.265042,0.0097 -0.0012,0.0053 -0.01573,0.07182 -0.03232,0.147774 -0.349455,1.599932 -0.969673,3.205063 -1.786631,4.623816 -0.04724,0.08203 -0.09511,0.166556 -0.106384,0.187825 -0.0331,0.06245 -0.0551,0.131661 -0.06021,0.189388 -0.0051,0.05751 -0.02029,0.09549 -0.0456,0.113868 -0.02592,0.01883 -0.02976,0.0057 -0.01303,-0.04453 0.01528,-0.0459 0.01774,-0.06262 0.0092,-0.06262 -0.0082,0 -0.02551,0.02553 -0.121816,0.179539 -0.422641,0.675847 -0.955544,1.395344 -1.482186,2.001168 l -0.08284,0.09529 h -2.009167 -2.009168 z"
   id="path61"
   transform="translate(0,-36.313167)" /><path
   style="fill:#800080;stroke:none;stroke-width:0.00552427"
   d="m 25.906737,64.802389 c 0.03571,-0.07252 0.06511,-0.162036 0.07955,-0.242139 0.02372,-0.131604 0.02769,-0.385095 0.0078,-0.499284 -0.01157,-0.06645 -0.04106,-0.151931 -0.07758,-0.224887 -0.118347,-0.236367 -0.384755,-0.54283 -1.184064,-1.36209 -0.360055,-0.369042 -1.456378,-1.48977 -1.564743,-1.599576 l -0.10388,-0.10526 V 60.044391 59.31963 h 0.72806 0.728059 l 0.347793,0.343629 c 0.191286,0.188996 0.547909,0.541449 0.792496,0.783228 0.936884,0.926127 1.182253,1.162598 1.450121,1.397531 0.389975,0.342026 0.618019,0.485353 0.831658,0.522704 0.0656,0.01147 0.179085,0.0077 0.249281,-0.0082 0.12998,-0.02954 0.339591,-0.119084 0.452294,-0.193213 0.206704,-0.135957 0.312389,-0.377441 0.36656,-0.837574 0.05776,-0.490582 0.07477,-1.169986 0.07501,-2.995537 l 1.22e-4,-0.912886 h 2.267196 c 2.156373,0 2.267091,4.73e-4 2.265042,0.0097 -0.0012,0.0053 -0.01574,0.07182 -0.03234,0.147774 -0.352077,1.610824 -0.964284,3.192911 -1.795803,4.640779 -0.05247,0.09137 -0.100375,0.175888 -0.10645,0.187826 -0.02439,0.04792 -0.04598,0.121175 -0.05083,0.172449 -0.0055,0.05795 -0.0206,0.0956 -0.04571,0.113843 -0.02592,0.01883 -0.02976,0.0057 -0.01303,-0.04453 0.02667,-0.0801 0.01601,-0.08295 -0.03253,-0.0087 -0.01823,0.02788 -0.06546,0.102354 -0.104957,0.165503 -0.09186,0.146875 -0.346258,0.528014 -0.452734,0.678292 -0.310171,0.437772 -0.610516,0.823331 -0.949957,1.219483 l -0.136086,0.158822 h -2.009478 -2.009478 z"
   id="path62"
   transform="translate(0,-36.313167)" /><path
   style="fill:#800080;stroke:none"
   d="m 31.265713,63.243881 c -0.0019,-0.0019 -0.02721,-0.0032 -0.05622,-0.0027 l -0.05274,7.33e-4 0.07155,-0.107114 c 0.08014,-0.119986 0.202419,-0.309584 0.285197,-0.442219 0.06756,-0.108251 0.06196,-0.100128 0.06611,-0.09598 0.0019,0.0019 -0.0033,0.02339 -0.01151,0.04773 -0.0082,0.02434 -0.01348,0.04818 -0.01163,0.05299 0.0089,0.02324 0.05155,-0.0034 0.06693,-0.04185 0.0051,-0.01265 0.0113,-0.04684 0.01386,-0.07598 0.007,-0.07956 0.03429,-0.145817 0.123761,-0.300459 0.465876,-0.805207 0.851826,-1.621382 1.174754,-2.484271 0.250967,-0.670606 0.465369,-1.385555 0.626209,-2.088175 0.0226,-0.09875 0.04402,-0.194454 0.04758,-0.212684 0.0036,-0.01823 0.0089,-0.04247 0.01179,-0.05386 l 0.0053,-0.02072 h 0.03293 c 0.01811,0 0.03293,6.87e-4 0.03293,0.0015 0,8.4e-4 -0.01373,0.06734 -0.03052,0.147774 -0.218733,1.048233 -0.538818,2.064833 -0.95892,3.045566 -0.274301,0.64036 -0.600347,1.280782 -0.958542,1.882782 -0.176039,0.29586 -0.470538,0.755254 -0.478841,0.746952 z"
   id="path63"
   transform="translate(0,-36.313167)" /><path
   style="fill:#800080;stroke:none;stroke-width:0.00390625"
   d="M 5.0992368,63.773437 C 4.1565766,62.487502 3.4033967,61.052546 2.8863739,59.557497 l -0.030774,-0.08899 0.047122,0.0011 0.047122,0.0011 0.031067,0.08594 c 0.5189647,1.435566 1.2330143,2.79684 2.1090482,4.020719 0.03632,0.05074 0.064373,0.09329 0.062339,0.09454 -0.00208,0.0013 -0.00416,0.03812 -0.00476,0.08414 l -0.00106,0.08185 z"
   id="path64"
   transform="translate(0,-36.313167)" /><path
   style="fill:#800080;stroke:none;stroke-width:0.015625"
   d="M 2.7886602,59.246094 C 2.2977477,57.726436 2.0353516,56.145744 2.0118273,54.566401 l -0.00401,-0.269537 0.048266,6e-6 0.048266,5e-6 0.010023,0.472656 c 0.029961,1.41285 0.1439952,2.344513 0.4085693,3.338021 0.10531,0.395452 0.3322044,1.137145 0.4104347,1.341667 0.00478,0.01249 -0.00699,0.01953 -0.032657,0.01953 -0.037845,0 -0.04422,-0.01267 -0.1120552,-0.222656 z"
   id="path65"
   transform="translate(0,-36.313167)" /><path
   style="fill:#800080;stroke:none;stroke-width:0.015625"
   d="m 2.0115654,54.04299 c 0.028287,-1.913938 0.4128461,-3.830253 1.131944,-5.640646 0.1377215,-0.346726 0.1422834,-0.355469 0.1854825,-0.355469 h 0.044288 l -0.040026,0.08984 c -0.081461,0.182848 -0.3031641,0.758101 -0.4110069,1.066439 -0.2681683,0.766731 -0.5404353,1.79014 -0.6403414,2.406942 -0.0999,0.616762 -0.1719826,1.608021 -0.1723699,2.370369 l -1.607e-4,0.316406 -0.050781,2.1e-5 -0.050781,2.1e-5 z"
   id="path66"
   transform="translate(0,-36.313167)" /><path
   style="fill:#800080;stroke:none;stroke-width:0.015625"
   d=""
   id="path67"
   transform="translate(0,-36.313167)" /><path
   style="fill:#800080;stroke:none;stroke-width:0.015625"
   d=""
   id="path68"
   transform="translate(0,-36.313167)" /><path
   style="fill:#800080;stroke:none;stroke-width:0.015625"
   d=""
   id="path69"
   transform="translate(0,-36.313167)" /><path
   style="fill:#800080;stroke:none"
   d="m 3.8558564,46.838978 c 0.00678,-0.01349 0.041378,-0.07814 0.076879,-0.143666 1.0404489,-1.920411 2.4552837,-3.599691 4.1727329,-4.952652 0.06123,-0.04824 0.1273535,-0.09975 0.1469398,-0.114484 l 0.035612,-0.02678 0.077253,0.0011 0.077252,0.0011 -0.062083,0.04687 C 7.6063709,42.23474 6.8464177,42.933471 6.1819406,43.671771 5.3317032,44.61647 4.5980956,45.659697 3.9870837,46.792969 l -0.036856,0.06836 -0.053351,0.0011 -0.053351,0.0011 z"
   id="path70"
   transform="translate(0,-36.313167)" /><path
   style="fill:#800080;stroke:none;stroke-width:0.00552427"
   d="m 3.2648446,48.090126 c 0,-0.0048 0.08804,-0.209301 0.1397299,-0.324511 0.1041644,-0.232166 0.2577308,-0.551363 0.3653143,-0.759327 0.038435,-0.0743 0.070425,-0.135629 0.07109,-0.136294 6.644e-4,-6.64e-4 0.025368,-0.003 0.054897,-0.0051 l 0.053689,-0.0039 -0.03325,0.06289 C 3.7816936,47.178436 3.5553802,47.645958 3.435135,47.917826 l -0.055867,0.126313 -0.039003,0.0016 c -0.038847,0.0016 -0.039075,0.0017 -0.057211,0.02551 -0.010015,0.01315 -0.018209,0.02164 -0.018209,0.01886 z"
   id="path71"
   transform="translate(0,-36.313167)" /><path
   style="fill:#800080;stroke:none"
   d="m 33.8189,55.989477 c 0.02646,-0.206555 0.05813,-0.908499 0.06649,-1.473852 0.01936,-1.308533 -0.06505,-2.468819 -0.238699,-3.28125 -0.518218,-2.424501 -1.48587,-4.547692 -2.9802,-6.539063 -1.048103,-1.39672 -2.09579,-2.400596 -3.587028,-3.437026 -2.366528,-1.64477 -4.690793,-2.508912 -7.415405,-2.756985 -1.324377,-0.120583 -2.742829,-0.09302 -4.015625,0.07804 -2.500084,0.336002 -4.79214,1.273583 -6.9957424,2.861658 -0.1963392,0.141496 -0.2197435,0.154171 -0.2765308,0.149757 l -0.062038,-0.0048 0.267937,-0.195312 c 2.1830992,-1.591368 4.7559432,-2.610464 7.4335622,-2.944409 0.790093,-0.09854 1.296795,-0.124562 2.210937,-0.113549 0.848735,0.01022 1.342052,0.04795 2.109375,0.161302 4.492361,0.663636 8.496924,3.211319 11.000116,6.998218 1.357013,2.052926 2.225924,4.397866 2.530142,6.828125 0.08737,0.697946 0.118749,1.22016 0.119049,1.981219 2.33e-4,0.59158 -0.01517,0.963483 -0.06067,1.465056 l -0.02614,0.2881 -0.0446,0.0051 -0.0446,0.0051 z"
   id="path72"
   transform="translate(0,-36.313167)" /><path
   style="fill:#800080;stroke:none;stroke-width:0.00390625"
   d="M 32.830469,12.491175 C 32.380945,11.348816 31.80746,10.272061 31.119808,9.2792969 30.669574,8.6292951 30.166791,8.0060128 29.631721,7.4345703 l -0.08138,-0.086914 h 0.04878 0.04878 l 0.05593,0.059633 c 0.181606,0.1936214 0.395394,0.4362814 0.587577,0.6669292 1.103051,1.323822 1.982962,2.8140935 2.611499,4.4229955 0.02332,0.0597 0.0424,0.109357 0.0424,0.110352 0,9.95e-4 -0.01538,0.0018 -0.03418,0.0018 l -0.03418,-3.6e-5 z"
   id="path73"
   transform="translate(0,-36.313167)" /><path
   style="fill:#800080;stroke:none;stroke-width:0.00390625"
   d="m 33.839879,20.061523 c 2e-5,-0.0027 0.0026,-0.02686 0.0058,-0.05371 0.03863,-0.329732 0.07461,-0.764138 0.08978,-1.083984 0.01836,-0.387194 0.01915,-0.8879 0.002,-1.287109 -0.03841,-0.895663 -0.159306,-1.805612 -0.359529,-2.706039 -0.01493,-0.06713 -0.02714,-0.122941 -0.02714,-0.124024 0,-0.0011 0.01304,-0.002 0.02897,-0.002 h 0.02897 l 0.0041,0.01855 c 0.232217,1.063151 0.348369,1.999656 0.37947,3.05957 0.0051,0.173115 0.0051,0.68499 4.2e-5,0.859375 -0.012,0.413413 -0.03739,0.807817 -0.07644,1.1875 -0.0074,0.07197 -0.01347,0.132178 -0.01348,0.13379 -1.5e-5,0.0016 -0.01409,0.0029 -0.03128,0.0029 -0.02242,0 -0.03124,-0.0014 -0.03121,-0.0049 z"
   id="path74"
   transform="translate(0,-36.313167)" /><path
   style="fill:#800080;stroke:none;stroke-width:0.00390625"
   d="m 31.511719,26.748339 c 0,-9.12e-4 0.03664,-0.06288 0.08142,-0.137695 0.294032,-0.491235 0.589403,-1.051631 0.87158,-1.653613 0.463943,-0.989752 0.776279,-1.850204 1.003893,-2.765625 0.04994,-0.200833 0.106951,-0.454881 0.140703,-0.626953 0.0067,-0.03438 0.01315,-0.06558 0.01423,-0.06934 0.0016,-0.0057 0.0066,-0.0068 0.02913,-0.0068 0.02616,0 0.02708,3.23e-4 0.02512,0.0088 -0.0011,0.0048 -0.0098,0.04675 -0.0194,0.09315 -0.0386,0.187472 -0.09021,0.411462 -0.144818,0.628534 -0.363894,1.446556 -0.932159,2.8423 -1.683128,4.134018 -0.06656,0.114493 -0.179541,0.303111 -0.22331,0.372818 L 31.591819,26.75 h -0.04005 c -0.02203,0 -0.04005,-7.47e-4 -0.04005,-0.0017 z"
   id="path75"
   transform="translate(0,-36.313167)" /><path
   style="fill:#800080;stroke:none;stroke-width:0.00390625"
   d="m 25.605794,32.318871 c 8.95e-4,-7.92e-4 0.04206,-0.02391 0.09147,-0.05137 0.639204,-0.355218 1.246497,-0.749999 1.83789,-1.194752 0.809502,-0.608779 1.577374,-1.309747 2.27914,-2.080563 0.549158,-0.603189 1.006733,-1.186528 1.413163,-1.801567 l 0.08699,-0.131646 0.04027,-1.9e-4 c 0.03115,-1.47e-4 0.03963,9.15e-4 0.03746,0.0047 -0.0015,0.0027 -0.04086,0.06201 -0.08736,0.131835 -0.462499,0.694448 -0.996035,1.371215 -1.564349,1.984308 -0.313473,0.338172 -0.68361,0.703851 -1.013906,1.001691 -0.898858,0.810536 -1.843999,1.489955 -2.896256,2.081987 l -0.101335,0.05701 h -0.0624 c -0.03432,0 -0.06167,-6.48e-4 -0.06077,-0.0014 z"
   id="path76"
   transform="translate(0,-36.313167)" /><path
   style="fill:#800080;stroke:none;stroke-width:0.0078125"
   d="m 17.613281,34.304158 c -1.175494,-0.0282 -2.346683,-0.187004 -3.488281,-0.472984 -0.356623,-0.08934 -0.331519,-0.08069 -0.334456,-0.115193 -0.0013,-0.01566 9.67e-4,-0.02848 0.0051,-0.02848 0.0041,0 0.07906,0.01947 0.166487,0.04328 0.316633,0.08621 0.737837,0.185431 1.073012,0.252765 0.508897,0.102233 1.122458,0.197305 1.414063,0.219113 0.784215,0.05865 2.576242,0.02633 3.480468,-0.06276 0.48516,-0.0478 1.291324,-0.196722 1.925782,-0.355743 1.246961,-0.312538 2.468531,-0.780775 3.584433,-1.373942 l 0.17037,-0.09056 0.05437,0.0023 0.05437,0.0023 -0.201302,0.10689 c -1.785827,0.948267 -3.714201,1.547871 -5.709114,1.775178 -0.490632,0.0559 -0.924544,0.08503 -1.464844,0.09833 -0.334621,0.0082 -0.369,0.0082 -0.730469,-4.57e-4 z"
   id="path78"
   transform="translate(0,-36.313167)" /><path
   style="fill:#800080;stroke:none;stroke-width:0.00390625"
   d="M 13.613281,33.69743 C 12.35663,33.33645 11.207435,32.853577 10.083008,32.214067 l -0.129883,-0.07387 v -0.04119 -0.04119 l 0.014648,0.0087 c 0.363181,0.214948 0.905665,0.497327 1.35254,0.704037 0.743995,0.344149 1.530546,0.638111 2.328125,0.870104 0.162275,0.0472 0.159344,0.04629 0.149414,0.04659 -0.0081,2.5e-4 -0.0088,0.0021 -0.0087,0.02273 6.5e-5,0.02433 0.0017,0.02863 0.01361,0.03537 l 0.0078,0.0044 -0.0078,-7.7e-5 c -0.0043,-4.2e-5 -0.08955,-0.02356 -0.189453,-0.05226 z"
   id="path79"
   transform="translate(0,-36.313167)" /><path
   style="fill:#800080;stroke:none;stroke-width:0.0078125"
   d="m 33.653366,57.275391 c 0.05529,-0.304056 0.09742,-0.611373 0.134865,-0.983804 0.01597,-0.158862 0.02449,-0.216625 0.0327,-0.221822 0.01811,-0.01146 0.07751,-0.0089 0.07751,0.0033 0,0.02173 -0.0479,0.394811 -0.07068,0.550496 -0.02798,0.191207 -0.07587,0.477025 -0.110524,0.65964 l -0.02484,0.130859 h -0.03212 -0.03212 z"
   id="path80"
   transform="translate(0,-36.313167)" /><path
   style="fill:#800080;stroke:none;stroke-width:0.00390625"
   d="m 29.578125,54.572266 v -2.63086 h 2.08913 2.089129 l 0.0046,0.03809 c 0.117589,0.974054 0.150903,2.185449 0.09236,3.358399 -0.01003,0.200872 -0.0299,0.507596 -0.0405,0.625 -0.0017,0.01934 -0.0021,0.05054 -7.57e-4,0.06934 0.0013,0.0188 9.51e-4,0.03418 -8.41e-4,0.03418 -0.0018,0 -0.0029,0.0057 -0.0024,0.0127 0.0016,0.0226 -1.74e-4,0.0386 -0.0039,0.03629 -0.0043,-0.0026 -0.006,0.0089 -0.01401,0.09555 -0.01907,0.205563 -0.05227,0.486456 -0.08033,0.679688 -0.01692,0.116504 -0.04538,0.294659 -0.04883,0.305664 -0.002,0.0065 -0.102739,0.0068 -2.042893,0.0068 h -2.040752 z m 4.22915,1.469726 c -0.0011,-0.0027 -0.002,-4.88e-4 -0.002,0.0049 0,0.0054 8.87e-4,0.0076 0.002,0.0049 0.0011,-0.0027 0.0011,-0.0071 0,-0.0098 z"
   id="path81"
   transform="translate(0,-36.313167)" /><path
   style="fill:#800080;stroke:none;stroke-width:0.00390625"
   d="m 29.578125,54.572266 v -2.63086 h 2.0893 2.089299 l 0.0025,0.02051 c 0.140906,1.159217 0.16138,2.644431 0.05497,3.987305 -0.0013,0.01611 -7.62e-4,0.03633 0.0011,0.04492 0.0032,0.0142 0.0039,0.01154 0.0082,-0.0293 0.0224,-0.210581 0.04528,-0.683088 0.05998,-1.238282 0.0061,-0.230465 0.0061,-0.933503 -6.1e-5,-1.138671 -0.01836,-0.615337 -0.04617,-1.033313 -0.100434,-1.509766 -0.0075,-0.06553 -0.01447,-0.123096 -0.01557,-0.12793 -0.0019,-0.0084 -8.67e-4,-0.0088 0.02151,-0.0088 0.01293,0 0.02351,6.38e-4 0.02351,0.0014 0,7.79e-4 0.006,0.04341 0.01344,0.09473 0.07252,0.503472 0.120541,0.998577 0.140705,1.450731 0.02039,0.457246 0.0213,1.175901 0.002,1.609375 -0.01079,0.242755 -0.02363,0.417458 -0.06305,0.857932 l -0.0088,0.09817 -0.0291,0.0026 c -0.04846,0.0044 -0.04966,0.0049 -0.05071,0.02048 -5.08e-4,0.0075 -0.0039,0.0183 -0.0076,0.02393 -0.0037,0.0056 -0.0048,0.009 -0.0024,0.0076 0.003,-0.0018 0.0037,0.0032 0.0024,0.01675 l -0.0019,0.0194 h 0.03956 c 0.0378,0 0.03956,3.72e-4 0.03956,0.0083 0,0.0234 -0.04829,0.386535 -0.07265,0.546342 -0.01805,0.118421 -0.06176,0.381858 -0.07631,0.459961 l -0.0082,0.04395 h -0.03123 c -0.03042,0 -0.03117,-2.27e-4 -0.02907,-0.0088 0.0069,-0.02805 0.04064,-0.244329 0.05905,-0.378484 0.02827,-0.205981 0.07666,-0.638634 0.07604,-0.679905 -5.06e-4,-0.03401 -0.0061,-0.0082 -0.01129,0.05155 -0.01519,0.176554 -0.05374,0.505226 -0.08249,0.703125 -0.01692,0.116504 -0.04538,0.294659 -0.04883,0.305664 -0.002,0.0065 -0.102739,0.0068 -2.042893,0.0068 h -2.040752 z m 4.233232,1.497116 c -9.35e-4,-0.0049 -0.0017,-0.0018 -0.0018,0.0068 -4.3e-5,0.0086 7.21e-4,0.01257 0.0017,0.0088 9.77e-4,-0.0037 0.001,-0.01077 7.9e-5,-0.01563 z m -0.0016,-0.02251 c 0.0011,-0.0043 4.5e-4,-0.0068 -0.0015,-0.0056 -0.0019,0.0012 -0.0035,0.0047 -0.0035,0.0078 0,0.0081 0.0027,0.0069 0.005,-0.0022 z m 0.0017,-0.04387 c -8.7e-4,-0.007 -0.0016,-0.0022 -0.0016,0.01067 -2.2e-5,0.01289 6.9e-4,0.01864 0.0016,0.01277 8.91e-4,-0.0059 9.09e-4,-0.01642 4e-5,-0.02344 z"
   id="path82"
   transform="translate(0,-36.313167)" /></g><path
   style="fill:#ff6600;stroke:none;stroke-width:0.03125"
   d="M 19.734375,62.597543 19.015625,61.883669 19,59.449647 18.98437,57.015625 18.90964,56.859375 c -0.05871,-0.12275 -0.42051,-0.502029 -1.6875,-1.769019 -1.266989,-1.266989 -1.646268,-1.62879 -1.769018,-1.6875 l -0.15625,-0.07473 -2.421875,-0.0083 -2.421875,-0.0083 -0.7265595,-0.7258 L 9,51.859874 v -1.045032 -1.045031 l 0.6953125,0.687599 c 0.4989015,0.493366 0.7394495,0.709047 0.8515625,0.763531 l 0.15625,0.07593 H 12.5 14.296875 l 0.14665,-0.07223 c 0.193769,-0.09544 0.372095,-0.272395 0.465248,-0.461659 l 0.0756,-0.153606 V 48.8125 47.015625 l -0.07593,-0.15625 C 14.853957,46.747262 14.638276,46.506714 14.14491,46.007812 L 13.457311,45.3125 h 1.045031 1.045032 l 0.725852,0.726562 0.725851,0.726563 0.0083,2.421875 0.0083,2.421875 0.07473,0.15625 c 0.108956,0.227807 3.228711,3.347562 3.456518,3.456518 l 0.15625,0.07473 2.421875,0.0083 2.421875,0.0083 0.726562,0.725852 L 27,56.765126 v 1.045031 1.045032 L 26.304687,58.16759 c -0.498901,-0.493366 -0.739449,-0.709048 -0.851562,-0.763532 l -0.15625,-0.07593 H 23.5 21.703125 l -0.146715,0.07227 c -0.187258,0.09224 -0.376283,0.281261 -0.468519,0.468519 l -0.07227,0.146715 v 1.796875 1.796875 l 0.07593,0.15625 c 0.05448,0.112113 0.270166,0.352661 0.763532,0.851562 l 0.687599,0.695313 -1.044782,-5.42e-4 -1.044782,-5.41e-4 z"
   id="path83"
   transform="translate(0,-0.313167)" /><path
   style="fill:#ff6600;stroke:none;stroke-width:0.00390625"
   d="m 20.5,56.757582 c 0,-1.249052 9.8e-4,-1.562177 0.0049,-1.559971 0.0027,0.0015 0.0105,0.0069 0.01737,0.01199 0.0069,0.0051 0.04993,0.02714 0.0957,0.04904 l 0.08322,0.03981 2.175781,0.007 c 1.19668,0.0039 2.287301,0.0081 2.423603,0.0095 l 0.247823,0.0024 0.72581,0.724782 L 27,56.766926 v 0.776693 0.776693 l -0.268555,-1.54e-4 -0.268554,-1.55e-4 -0.203125,-0.199571 c -0.289513,-0.284448 -0.452052,-0.438493 -0.578125,-0.547913 -0.131875,-0.114455 -0.169825,-0.140827 -0.284881,-0.19797 l -0.09348,-0.04642 h -1.802421 -1.802422 l -0.09447,0.04657 c -0.139222,0.06863 -0.221113,0.126082 -0.318402,0.223371 -0.09729,0.09729 -0.154739,0.17918 -0.223371,0.318402 l -0.04657,0.09447 v 0.154685 0.154685 H 20.757812 20.5 Z"
   id="path85"
   transform="translate(0,-0.313167)" /><path
   style="fill:#ff6600;stroke:none;stroke-width:0.00390625"
   d="m 26.275395,56.039113 -0.722653,-0.722707 h 0.01563 c 0.01557,0 0.01823,0.0026 0.723906,0.708289 0.706798,0.706805 0.708279,0.70832 0.707028,0.722707 l -0.0013,0.01442 z"
   id="path86"
   transform="translate(0,-0.313167)" /><path
   style="fill:#ff6600;stroke:none;stroke-width:0.00390625"
   d="m 16.275395,46.039113 -0.722653,-0.722707 h 0.01563 c 0.01557,0 0.01823,0.0026 0.723906,0.708289 0.706798,0.706805 0.708279,0.70832 0.707028,0.722707 l -0.0013,0.01442 z"
   id="path87"
   transform="translate(0,-0.313167)" /><path
   style="fill:#ff6600;stroke:none;stroke-width:0.00390625"
   d=""
   id="path88"
   transform="translate(0,-0.313167)" /><path
   style="fill:#ff6600;stroke:none;stroke-width:0.00390625"
   d="m 14.052569,45.948898 -0.632647,-0.632812 0.02006,0.0011 0.02006,0.0011 0.372517,0.37696 c 0.462197,0.467708 0.54649,0.553761 0.671813,0.685845 0.126068,0.132866 0.184672,0.196717 0.182526,0.198864 -9.26e-4,9.25e-4 -0.286375,-0.283083 -0.634331,-0.63113 z"
   id="path89"
   transform="translate(0,-0.313167)" /><path
   style="fill:#ff6600;stroke:none;stroke-width:0.00390625"
   d="m 14.969377,47.0625 c -0.02164,-0.08748 -0.06881,-0.199615 -0.114198,-0.271484 -0.01634,-0.02587 -0.0197,-0.03849 -0.0049,-0.01851 0.02991,0.04046 0.05336,0.08149 0.09113,0.159449 l 0.04321,0.08918 -0.0011,0.04705 -0.0011,0.04705 z"
   id="path90"
   transform="translate(0,-0.313167)" /><path
   style="fill:#ff6600;stroke:none;stroke-width:0.00390625"
   d=""
   id="path91"
   transform="translate(0,-0.313167)" /><path
   style="fill:#ff6600;stroke:none;stroke-width:0.00390625"
   d=""
   id="path92"
   transform="translate(0,-0.313167)" /><path
   style="fill:#ff6600;stroke:none;stroke-width:0.00390625"
   d="m 15.632813,53.536357 c -0.04535,-0.04036 -0.109895,-0.09195 -0.141049,-0.112743 -0.0142,-0.0095 -0.06429,-0.03546 -0.111328,-0.05775 l -0.08551,-0.04052 -1.5,-0.0046 c -0.825,-0.0025 -1.801026,-0.0057 -2.168945,-0.0071 l -0.668946,-0.0025 v -1.007165 -1.007166 h 1.672039 1.672039 l 0.07975,-0.03869 c 0.147603,-0.07161 0.230101,-0.127575 0.325651,-0.220934 0.102514,-0.100163 0.155134,-0.17464 0.229385,-0.324663 l 0.04848,-0.09796 v -1.154974 -1.154974 h 1.009766 1.009765 l 3.73e-4,0.393555 c 2.05e-4,0.216455 0.0024,0.960449 0.005,1.65332 l 0.0046,1.259766 0.04013,0.08363 c 0.04376,0.0912 0.05586,0.109295 0.133308,0.199385 0.199824,0.232438 0.602417,0.65315 1.294468,1.352724 l 0.315901,0.319336 -1.565799,-2.5e-4 -1.5658,-2.51e-4 z"
   id="path93"
   transform="translate(0,-0.313167)" /><path
   style="fill:#ff6600;stroke:none;stroke-width:0.00390625"
   d="m 14.248047,51.283365 c 0.02793,-0.0072 0.0633,-0.01754 0.07861,-0.02287 0.318967,-0.111133 0.560388,-0.373449 0.644194,-0.699948 l 0.01303,-0.05078 2.44e-4,0.04801 2.44e-4,0.04801 -0.05257,0.104698 c -0.02892,0.05758 -0.06466,0.122994 -0.07943,0.145354 -0.06977,0.105602 -0.154343,0.194962 -0.256987,0.271518 -0.06049,0.04512 -0.09922,0.0679 -0.207831,0.122237 l -0.09452,0.04729 -0.04788,-1.68e-4 -0.04788,-1.68e-4 z"
   id="path94"
   transform="translate(0,-0.313167)" /><path
   style="fill:#ff6600;stroke:none;stroke-width:0.00390625"
   d="M 19.708004,62.604488 19,61.896476 v -0.381832 c 0,-0.25195 0.0013,-0.381832 0.0039,-0.381832 0.0048,0 0.0044,-0.02087 0.0073,0.402344 l 0.0024,0.34961 0.291015,0.289188 c 0.160059,0.159053 0.433399,0.430497 0.607422,0.603207 0.174024,0.172711 0.3665,0.363817 0.427726,0.42468 l 0.11132,0.110659 h -0.01757 -0.01757 z"
   id="path95"
   transform="translate(0,-0.313167)" /><path
   style="fill:#ff6600;stroke:none;stroke-width:0.00390625"
   d="m 22.493507,63.260299 c -0.02758,-0.02871 -0.209109,-0.212842 -0.403395,-0.40918 -0.454055,-0.458851 -0.747074,-0.761865 -0.741818,-0.767121 9.05e-4,-9.05e-4 0.278425,0.275137 0.61671,0.613428 l 0.615065,0.615074 h -0.01821 -0.01821 z"
   id="path96"
   transform="translate(0,-0.313167)" /><path
   style="fill:#ff6600;stroke:none;stroke-width:0.00390625"
   d="M 26.363286,58.259809 C 26.014167,57.910664 25.730055,57.625 25.731926,57.625 c 0.0044,0 0.06754,0.05796 0.197566,0.181228 0.127212,0.120602 0.219334,0.210753 0.648633,0.634762 0.18584,0.183549 0.356896,0.352454 0.380126,0.375344 l 0.04223,0.04162 -0.0012,0.01833 -0.0012,0.01833 z"
   id="path97"
   transform="translate(0,-0.313167)" /><path
   style="fill:#ff6600;stroke:none;stroke-width:0.00390625"
   d="m 25.529297,57.462471 c -0.01074,-0.0075 -0.04941,-0.02848 -0.08594,-0.04659 -0.06947,-0.03445 -0.14527,-0.06206 -0.214131,-0.078 l -0.03977,-0.0092 0.05135,-2.73e-4 0.05135,-2.73e-4 0.09122,0.04463 c 0.08352,0.04085 0.130618,0.06821 0.161537,0.09382 0.01736,0.01438 0.0069,0.01162 -0.01563,-0.0041 z"
   id="path98"
   transform="translate(0,-0.313167)" /><path
   style="fill:#ff6600;stroke:none;stroke-width:0.00390625"
   d="m 9.7077443,52.604229 -0.7082632,-0.708272 0.00124,-0.01638 0.00124,-0.01638 0.7246055,0.724656 0.7246054,0.724656 h -0.01758 -0.01758 z"
   id="path99"
   transform="translate(0,-0.313167)" /></g>
</svg>
